<?xml version="1.0" standalone="no"?>
<!DOCTYPE svg PUBLIC "-//W3C//DTD SVG 20010904//EN"
 "http://www.w3.org/TR/2001/REC-SVG-20010904/DTD/svg10.dtd">
<svg version="1.0" xmlns="http://www.w3.org/2000/svg"
 width="600.000000pt" height="600.000000pt" viewBox="0 0 600.000000 600.000000"
 preserveAspectRatio="xMidYMid meet">
<metadata>
Created by potrace 1.16, written by Peter Selinger 2001-2019
</metadata>
<g transform="translate(0.000000,600.000000) scale(0.100000,-0.100000)"
fill="#000000" stroke="none">
<path d="M2960 5560 l0 -40 -80 0 -80 0 0 -40 0 -40 -40 0 -40 0 0 -40 0 -40
-40 0 -40 0 0 -40 0 -40 -120 0 -120 0 0 40 0 40 -200 0 -200 0 0 40 0 40 -80
0 -80 0 0 -40 0 -40 -200 0 -200 0 0 -40 0 -40 -80 0 -80 0 0 -40 0 -40 -40 0
-40 0 0 -40 0 -40 -41 0 -41 0 3 -42 4 -43 -42 4 -43 3 -1 -68 c-1 -38 -4 -57
-6 -41 -4 23 -9 27 -39 27 -33 0 -34 -1 -34 -40 l0 -40 -40 0 -40 0 0 -80 0
-80 -40 0 -40 0 0 -120 0 -120 -40 0 -40 0 0 -120 c0 -87 -3 -120 -12 -120 -8
0 -8 -3 -2 -9 5 -5 25 -6 44 -2 l35 7 7 79 c4 44 11 107 15 139 7 56 9 59 25
43 9 -9 24 -17 32 -17 12 0 16 -10 16 -40 0 -22 5 -40 10 -40 6 0 10 -9 10
-20 0 -11 5 -20 10 -20 6 0 10 9 10 20 0 17 7 20 40 20 38 0 40 2 40 30 0 23
-4 30 -20 30 -11 0 -20 5 -20 10 0 6 -18 10 -41 10 -24 0 -38 4 -34 10 3 5 0
8 -7 5 -22 -8 -40 11 -42 44 -3 37 8 48 29 31 11 -9 15 -9 15 -1 0 6 -4 11
-10 11 -5 0 -10 6 -10 14 0 8 -6 17 -12 20 -10 3 -8 9 5 19 10 8 16 20 15 27
-2 7 3 15 10 17 9 4 12 -16 12 -76 0 -65 3 -81 15 -81 8 0 15 9 15 20 0 17 7
20 40 20 38 0 40 2 40 30 0 23 -5 30 -19 30 -16 0 -20 9 -23 49 -1 27 0 66 3
87 5 27 3 44 -7 55 -8 9 -11 19 -7 22 12 13 23 7 23 -13 0 -11 7 -20 15 -20 8
0 15 9 15 20 0 13 7 20 19 20 10 0 21 9 24 20 4 15 14 20 41 20 29 0 36 -4 36
-20 0 -13 7 -20 20 -20 13 0 20 7 20 20 0 18 7 20 60 20 l60 0 0 30 c0 28 -2
30 -40 30 -22 0 -40 5 -40 10 0 6 -9 10 -20 10 -17 0 -20 7 -20 40 0 22 3 39
7 39 5 -1 50 -1 101 0 85 1 92 3 92 21 0 13 7 20 20 20 17 0 20 7 20 40 0 33
3 40 20 40 11 0 20 6 20 14 0 25 -12 46 -26 46 -16 0 -19 16 -5 24 5 3 11 0
14 -7 6 -15 57 -21 57 -7 0 6 5 10 10 10 6 0 10 -9 10 -20 0 -13 7 -20 20 -20
17 0 20 -7 20 -40 0 -22 5 -40 10 -40 6 0 10 9 10 20 0 13 7 20 20 20 13 0 20
7 20 20 0 18 7 20 60 20 l60 0 0 34 c0 28 -4 35 -22 38 -15 2 -23 10 -23 23 0
16 -7 20 -37 20 -20 0 -34 3 -31 8 2 4 24 7 49 7 27 0 44 4 44 12 0 6 7 3 15
-8 14 -18 16 -18 29 -1 7 9 17 17 21 17 4 0 2 -7 -5 -15 -7 -8 -8 -20 -4 -27
5 -7 7 -21 6 -30 -3 -15 5 -18 47 -18 50 0 51 -1 51 -30 0 -16 5 -30 10 -30 6
0 10 14 10 30 0 23 4 30 20 30 13 0 20 7 20 20 0 14 -7 20 -21 20 -11 0 -17 5
-14 10 8 13 122 13 129 1 4 -5 0 -12 -6 -15 -10 -5 -10 -7 0 -12 6 -3 12 -23
12 -45 l0 -39 69 0 c46 0 71 4 74 13 3 9 9 7 23 -5 17 -17 17 -18 -14 -24 -37
-7 -41 -19 -12 -34 17 -9 19 -8 13 7 -6 16 -5 16 10 4 11 -9 14 -18 8 -30 -8
-14 -12 -56 -12 -104 0 -9 -4 -15 -9 -12 -9 6 -24 -91 -18 -120 6 -32 26 -27
38 10 10 31 9 39 -4 54 -20 22 -21 41 -2 41 7 0 16 -12 19 -27 3 -16 9 -37 13
-47 5 -14 4 -17 -5 -12 -9 6 -12 0 -9 -20 2 -17 8 -28 16 -27 6 2 12 -6 12
-17 0 -11 5 -20 10 -20 7 0 7 -8 -1 -22 -9 -17 -9 -23 0 -26 6 -2 9 -8 5 -13
-3 -5 -2 -9 3 -9 12 0 15 -88 3 -95 -18 -11 -11 -45 9 -45 23 0 28 13 25 62
-1 21 2 36 6 33 5 -3 9 -13 9 -23 0 -42 10 -76 25 -84 16 -9 16 -11 0 -22 -11
-9 -13 -15 -6 -20 6 -3 13 -2 17 4 12 20 26 10 15 -11 -7 -11 -8 -24 -4 -27 4
-4 9 -1 11 6 4 9 11 6 24 -10 11 -12 17 -28 14 -35 -2 -8 0 -11 5 -8 13 8 13
-1 0 -25 -7 -14 -6 -20 6 -24 12 -5 15 -2 10 11 -7 17 -6 17 9 2 9 -9 17 -23
19 -32 3 -21 27 -48 37 -41 5 3 9 -2 9 -10 0 -9 4 -16 10 -16 5 0 6 -7 3 -17
-4 -10 -2 -14 5 -9 6 3 18 -4 26 -16 20 -28 12 -37 -12 -14 -11 9 -29 14 -43
12 -13 -3 -27 -5 -31 -5 -5 -1 -8 -5 -8 -10 0 -6 17 -11 38 -13 29 -2 37 -7
37 -23 0 -13 8 -21 21 -23 26 -4 30 -50 5 -70 -15 -11 -14 -14 7 -28 29 -22
28 -30 -7 -37 -16 -3 -31 -13 -35 -22 -4 -10 -2 -14 5 -9 8 4 9 -1 4 -16 -5
-14 -3 -20 3 -16 6 4 8 -3 4 -16 -5 -23 -5 -23 21 2 15 14 27 33 27 43 0 18
25 22 68 11 17 -5 22 -14 23 -43 0 -29 2 -32 9 -16 5 11 9 34 9 52 1 27 -3 32
-26 35 -24 3 -37 23 -15 23 12 0 32 16 32 26 0 5 -8 9 -17 9 -15 0 -16 2 -3
10 18 11 43 -7 36 -26 -3 -9 0 -11 11 -7 10 4 14 2 9 -5 -3 -6 1 -15 9 -20 9
-5 18 -17 20 -28 2 -10 4 -21 5 -24 0 -3 5 3 11 13 10 17 12 17 27 2 10 -9 26
-22 37 -30 16 -11 17 -14 4 -15 -8 0 -25 9 -36 20 -25 23 -33 12 -25 -39 l5
-33 -42 7 c-34 6 -41 4 -41 -9 0 -9 8 -16 20 -16 13 0 20 -7 20 -20 0 -17 7
-20 40 -20 37 0 40 2 40 26 0 15 -8 33 -17 40 -16 12 -13 13 22 11 29 -1 39 2
37 11 -1 8 2 11 8 7 6 -3 8 -10 5 -15 -3 -5 4 -11 15 -15 16 -5 19 -12 14 -28
-4 -12 -11 -23 -15 -25 -9 -4 -13 -32 -4 -32 3 0 18 14 33 30 20 23 31 28 42
20 10 -6 11 -10 3 -10 -7 0 -13 -5 -13 -11 0 -6 9 -9 20 -6 10 3 18 1 17 -3
-1 -5 7 -16 18 -25 14 -11 16 -18 8 -21 -23 -10 -15 -42 10 -42 12 0 34 -4 50
-7 17 -5 27 -3 27 4 0 6 9 11 20 11 11 0 20 -4 20 -10 0 -5 9 -10 20 -10 11 0
20 5 20 10 0 6 9 10 20 10 11 0 20 -4 20 -10 0 -6 33 -10 80 -10 73 0 80 2 80
20 0 19 -6 20 -133 17 -100 -1 -138 1 -150 11 -9 8 -20 11 -26 8 -5 -3 -11 1
-15 9 -4 10 1 15 16 15 18 0 19 2 7 17 -12 15 -12 16 6 9 39 -17 58 -12 66 16
4 15 4 29 1 31 -4 2 -1 2 6 1 6 -2 12 3 12 11 0 13 36 45 52 45 4 0 5 -7 2
-15 -4 -9 -13 -14 -22 -13 -9 2 -18 -7 -23 -24 -7 -26 -6 -27 22 -21 28 5 41
-9 19 -22 -21 -13 -9 -23 15 -12 21 10 25 19 25 59 0 43 2 46 25 43 14 -1 25
2 25 6 0 5 52 9 115 9 133 0 158 17 33 23 -58 2 -76 6 -60 11 25 9 30 26 7 26
-8 0 -16 7 -16 15 -3 29 -4 33 -12 42 -5 4 -7 2 -5 -6 2 -8 -8 -20 -22 -28
-14 -7 -20 -13 -13 -13 7 0 10 -7 6 -15 -3 -9 -13 -15 -22 -13 -9 2 -26 -7
-37 -19 -12 -13 -28 -23 -35 -23 -8 1 1 14 20 30 19 16 38 27 43 24 4 -3 8 0
8 6 0 18 99 116 120 117 11 1 20 -3 20 -9 0 -6 -3 -9 -6 -5 -10 9 -64 -22 -63
-36 0 -9 2 -9 6 1 7 17 23 15 23 -3 0 -16 20 -19 58 -9 13 4 22 14 22 25 0 12
7 19 20 19 24 0 24 -2 4 45 -15 36 -16 37 -29 18 -8 -11 -24 -23 -36 -26 -20
-5 -19 -3 7 26 16 17 34 37 41 44 6 7 13 18 16 25 3 10 10 8 23 -6 19 -18 18
-18 -6 -11 -23 7 -24 6 -7 -7 11 -8 18 -21 17 -29 -5 -31 1 -39 29 -39 30 0
45 19 34 46 -5 13 1 15 28 11 24 -2 33 -8 31 -19 -1 -9 4 -18 13 -22 26 -9 17
-26 -15 -26 -28 0 -30 -3 -30 -35 0 -19 5 -35 10 -35 6 0 10 9 10 20 0 17 7
20 50 20 44 0 50 -2 50 -21 0 -18 4 -21 29 -16 20 4 33 1 42 -9 16 -19 6 -28
-23 -18 -32 10 -34 7 -37 -44 -1 -19 -5 -22 -21 -17 -22 7 -55 -18 -45 -35 9
-14 -17 -49 -33 -43 -8 4 -12 0 -10 -9 4 -17 -46 -78 -64 -78 -11 0 -11 -2 0
-9 11 -7 11 -9 0 -14 -10 -3 -14 3 -14 19 0 13 5 24 12 24 6 0 15 7 18 16 3 8
10 13 15 9 5 -3 13 0 17 6 7 12 -15 31 -28 23 -4 -3 -8 0 -8 5 0 6 -7 11 -15
11 -10 0 -15 -10 -15 -30 0 -23 -4 -30 -20 -30 -22 0 -26 -10 -9 -27 12 -12 3
-37 -11 -28 -12 8 -10 -68 3 -84 9 -11 9 -13 0 -8 -7 5 -13 -1 -15 -15 -2 -13
-8 -22 -15 -21 -6 1 -10 -5 -9 -15 1 -21 -30 -27 -61 -11 -19 10 -28 10 -44 1
-11 -7 -19 -8 -19 -2 0 5 5 10 11 10 5 0 7 5 3 12 -4 7 -3 8 4 4 7 -4 12 -2
12 4 0 6 -8 10 -17 8 -14 -2 -19 -15 -20 -51 -2 -29 1 -45 7 -42 6 3 10 1 10
-4 0 -6 -7 -11 -15 -11 -20 0 -19 -10 3 -26 16 -13 16 -13 0 -14 -10 0 -18 -5
-18 -11 0 -7 8 -9 23 -4 20 7 59 8 125 4 26 -1 28 -11 7 -29 -10 -8 -12 -17
-6 -24 5 -6 5 -20 2 -30 -6 -16 -9 -15 -21 13 -21 52 -35 32 -32 -45 2 -38 8
-70 13 -72 14 -6 11 -48 -8 -88 -17 -34 -17 -37 0 -49 18 -13 24 -55 7 -55 -5
0 -10 -11 -10 -25 0 -19 5 -25 21 -25 16 0 20 5 16 20 -3 11 -1 20 4 20 11 0
0 53 -14 61 -5 4 -6 17 -2 29 12 38 28 6 28 -57 1 -39 6 -63 17 -73 8 -8 21
-26 28 -38 12 -21 11 -22 -7 -13 -17 10 -19 7 -19 -24 0 -19 4 -35 9 -35 5 0
11 -11 15 -25 9 -35 24 -31 24 5 0 34 15 40 25 10 3 -11 10 -20 14 -20 4 0 6
-20 5 -45 -3 -45 -2 -45 31 -45 32 0 34 -2 37 -37 2 -31 7 -39 26 -41 12 -2
22 1 22 7 0 14 37 14 45 1 4 -6 21 -17 38 -25 30 -13 30 -14 4 -8 -15 3 -33 0
-41 -6 -7 -6 -21 -9 -30 -5 -9 3 -16 1 -16 -4 0 -6 8 -13 18 -15 9 -3 -279 -5
-640 -6 l-658 -1 0 55 c0 30 5 55 10 55 6 0 10 7 10 15 0 8 6 25 13 36 10 18
9 23 -1 26 -10 4 -10 8 -1 19 8 9 8 14 1 14 -6 0 -16 -8 -21 -17 -10 -17 -10
-17 -11 0 0 9 -4 17 -9 17 -5 0 -11 -8 -14 -17 -2 -10 -4 0 -4 22 0 22 2 32 4
22 6 -24 23 -11 23 19 0 13 5 24 10 24 6 0 10 -9 10 -19 0 -11 5 -23 10 -26 6
-3 10 1 10 9 0 9 9 16 20 16 18 0 20 7 20 60 0 53 -2 60 -20 60 -18 0 -20 5
-14 39 6 39 -10 67 -22 37 -3 -9 -9 -16 -13 -16 -13 0 -32 60 -26 81 9 27 43
61 55 54 15 -9 22 13 10 34 -5 11 -19 23 -30 26 -11 3 -20 15 -20 26 0 10 -7
19 -15 19 -8 0 -15 7 -15 16 0 8 -3 13 -8 10 -4 -2 -6 13 -4 35 l4 39 49 0 49
0 0 -40 c0 -22 5 -40 10 -40 6 0 10 18 10 40 l0 40 40 0 40 0 0 40 c0 29 -4
40 -15 40 -8 0 -15 5 -15 10 0 6 -10 10 -23 10 -30 0 -31 23 -1 55 15 16 18
25 10 28 -20 8 -40 -9 -33 -27 4 -9 2 -16 -3 -16 -6 0 -10 -6 -10 -14 0 -8 -9
-18 -20 -21 -19 -6 -24 -16 -21 -42 1 -7 -4 -10 -12 -8 -7 3 -23 -8 -35 -25
-13 -16 -28 -30 -35 -30 -8 0 -25 50 -46 133 -34 141 -68 226 -104 265 -53 57
-126 68 -176 27 -63 -54 -64 -138 -6 -374 19 -75 34 -145 34 -156 -1 -11 2
-31 5 -45 6 -24 6 -24 -3 -2 -12 26 -23 30 -14 5 5 -15 3 -16 -8 -5 -18 17
-66 15 -73 -3 -7 -21 -16 -19 -48 9 -33 27 -34 33 -10 39 9 2 -18 4 -60 3 -47
-1 -82 -6 -90 -14 -10 -10 -3 -11 32 -7 24 3 42 3 38 0 -3 -3 -20 -7 -38 -10
-18 -2 -36 -9 -40 -16 -6 -8 -9 -8 -14 0 -4 6 -4 16 -1 21 3 6 -1 10 -9 10
-19 0 -20 -4 -4 -30 10 -15 10 -22 0 -32 -9 -9 -12 -7 -12 10 0 13 -6 22 -15
22 -8 0 -15 -4 -15 -10 0 -5 -9 -14 -19 -19 -16 -9 -18 -8 -14 9 4 15 0 20
-16 20 -17 0 -21 -6 -21 -29 0 -16 -6 -31 -14 -34 -10 -4 -13 3 -12 25 2 44
-41 68 -48 26 -4 -27 -22 -46 -46 -50 l-25 -3 25 -24 c14 -13 19 -21 13 -17
-9 5 -13 0 -13 -12 0 -17 -3 -18 -36 -8 -19 6 -28 12 -20 14 29 6 16 20 -24
27 -56 9 -100 -2 -100 -26 0 -15 8 -19 38 -20 23 -1 29 -3 14 -6 -12 -3 -28
-13 -34 -23 -10 -15 -14 -16 -25 -5 -7 8 -13 18 -13 24 0 6 -4 11 -10 11 -5 0
-10 -9 -10 -20 0 -11 -4 -20 -10 -20 -15 0 -24 -71 -12 -102 6 -16 6 -28 1
-28 -5 0 -9 -7 -9 -16 0 -8 4 -12 10 -9 7 4 7 -3 0 -20 -12 -32 -13 -102 -1
-109 5 -3 11 -14 14 -25 3 -14 1 -18 -9 -14 -9 3 -14 -1 -14 -12 0 -9 5 -13
10 -10 11 7 14 -28 3 -38 -3 -4 -8 -20 -9 -36 -3 -23 1 -30 19 -35 35 -9 38
-8 32 22 -4 22 -4 24 4 7 20 -41 14 -46 -46 -43 -42 2 -57 7 -55 16 1 8 -2 11
-8 7 -6 -4 -10 4 -10 19 0 32 -16 42 -35 22 -9 -8 -23 -12 -31 -9 -13 5 -13 7
-2 14 9 6 10 9 1 9 -7 0 -10 6 -7 14 3 9 -5 15 -25 19 -35 7 -42 24 -10 23 12
-1 24 5 26 12 3 8 -6 12 -26 12 -17 0 -31 -4 -31 -9 0 -5 -21 -4 -47 1 -62 11
-100 3 -83 -17 11 -13 7 -15 -19 -15 -33 0 -39 8 -19 28 9 9 3 12 -30 12 -33
0 -42 -4 -42 -18 0 -21 -34 -44 -53 -36 -8 3 -20 -2 -27 -11 -7 -8 -23 -15
-36 -15 -13 0 -24 -6 -24 -12 0 -10 -2 -10 -8 -1 -7 10 -12 10 -26 0 -17 -12
-17 -14 -1 -27 14 -12 20 -12 38 0 144 92 317 93 455 3 31 -20 60 -36 65 -35
4 1 7 -2 7 -8 0 -6 30 -10 70 -10 l70 0 0 -280 0 -280 40 0 40 0 0 -80 0 -80
40 0 40 0 0 -240 0 -240 40 0 c40 0 40 0 40 -37 0 -45 8 -58 38 -65 29 -8 29
-3 -3 273 -13 119 -22 225 -19 236 3 11 -10 44 -34 83 -123 205 -149 459 -67
661 22 54 22 61 10 121 -15 70 -66 191 -86 203 -7 5 -17 1 -25 -10 -11 -15 -9
-25 11 -64 36 -73 58 -157 50 -199 l-7 -37 -37 41 c-57 60 -83 140 -84 249 -1
137 39 205 120 205 63 0 114 -57 202 -226 46 -89 91 -140 115 -131 25 10 19
37 -19 78 -19 21 -55 79 -80 129 -25 50 -62 109 -82 131 l-37 41 27 24 c41 35
93 32 153 -8 37 -26 61 -56 110 -138 71 -118 113 -170 138 -170 32 0 29 29 -7
69 -20 22 -54 74 -77 115 -23 42 -62 98 -86 125 -51 57 -50 78 6 101 95 40
248 -111 329 -323 10 -26 43 -38 55 -19 2 4 -6 35 -20 67 -19 47 -24 78 -24
145 0 100 -14 185 -69 416 -23 94 -41 187 -41 207 0 84 41 122 102 93 46 -22
71 -68 112 -212 48 -167 76 -343 83 -524 6 -177 -2 -276 -52 -578 -39 -238
-62 -422 -70 -572 -5 -102 -4 -111 43 -295 49 -190 49 -190 75 -187 15 1 27
-2 27 -8 0 -5 5 -10 10 -10 6 0 10 60 10 160 l0 160 -40 0 -40 0 0 240 0 240
40 0 40 0 0 200 0 200 80 0 80 0 0 -160 0 -160 80 0 80 0 0 33 c0 32 -1 33
-35 29 -37 -4 -50 9 -43 44 3 16 5 16 18 2 9 -8 26 -19 38 -22 21 -7 22 -5 17
21 -5 22 -4 25 4 13 9 -13 12 -13 20 -1 9 14 41 9 41 -7 0 -4 -12 -13 -27 -19
-28 -11 -28 -11 10 -12 l37 -1 0 120 0 120 480 0 480 0 0 -40 0 -40 -160 0
-160 0 0 -40 0 -40 -80 0 -80 0 0 -40 0 -40 -160 0 -160 0 0 -40 0 -40 -80 0
-80 0 0 -40 0 -40 -40 0 -40 0 0 -80 0 -80 -40 0 -40 0 0 -160 0 -160 36 0
c39 0 35 -3 152 134 66 78 178 167 272 216 159 82 412 130 587 110 157 -17
150 -5 78 -125 -74 -123 -127 -246 -162 -375 -22 -81 -26 -117 -26 -245 -1
-127 2 -163 22 -235 63 -234 203 -424 410 -558 51 -33 88 -63 82 -67 -6 -3
-11 -17 -11 -31 0 -23 2 -24 80 -24 l80 0 0 -40 0 -40 480 0 480 0 0 40 0 40
120 0 120 0 0 40 0 40 120 0 120 0 0 40 0 40 40 0 40 0 0 40 0 40 80 0 80 0 0
280 0 280 -40 0 -40 0 0 40 0 40 -40 0 -40 0 0 280 0 280 -40 0 -40 0 0 40 0
40 -40 0 -40 0 0 40 0 40 -80 0 -80 0 0 40 0 40 -40 0 -40 0 0 40 0 40 -40 0
-40 0 0 80 0 80 -40 0 -40 0 0 320 0 320 160 0 160 0 0 40 0 40 80 0 80 0 0
80 0 80 40 0 40 0 0 320 0 320 -40 0 -40 0 0 80 0 80 -40 0 -40 0 0 40 0 40
-80 0 -80 0 0 40 0 40 -40 0 -40 0 0 40 0 40 -240 0 -240 0 0 -40 0 -40 -80 0
-80 0 0 -40 0 -40 -40 0 -40 0 0 -80 0 -80 -200 0 -200 0 0 40 0 40 -280 0
-280 0 0 40 0 40 -40 0 -40 0 0 40 0 40 40 0 40 0 0 40 0 40 40 0 40 0 0 120
0 120 40 0 40 0 0 200 0 200 -80 0 -80 0 0 40 0 40 -120 0 -120 0 0 40 0 40
-80 0 -80 0 0 40 0 40 -40 0 -40 0 0 40 0 40 -80 0 -80 0 0 40 0 40 -40 0 -40
0 0 -40z m-1025 -190 c4 -6 14 -9 23 -6 10 3 28 -1 42 -9 l25 -14 -25 -2 c-33
-3 -77 0 -119 7 -24 4 -31 8 -23 16 8 8 15 8 25 -1 12 -9 16 -8 21 4 6 17 22
20 31 5z m1105 -50 l0 -40 80 0 80 0 0 -40 0 -40 80 0 80 0 0 -40 0 -40 120 0
120 0 0 -40 0 -40 40 0 40 0 0 -80 0 -80 -40 0 -40 0 0 -80 0 -80 -40 0 -40 0
0 -80 0 -80 -40 0 -40 0 0 40 0 40 -80 0 -80 0 0 120 0 120 -40 0 -40 0 0 120
0 120 -160 0 -160 0 0 -40 0 -40 -82 -1 c-46 -1 -90 0 -98 1 -21 3 -70 51 -63
62 3 6 23 -7 44 -28 l39 -38 0 82 0 82 40 0 40 0 0 40 0 40 80 0 80 0 0 40 0
40 40 0 40 0 0 -40z m-842 9 l37 -2 -35 -6 c-26 -4 -36 -12 -38 -28 -2 -15
-10 -23 -22 -23 -13 0 -17 5 -14 15 4 10 0 15 -14 15 -12 0 -24 5 -28 11 -5 8
4 10 29 7 31 -3 34 -2 24 11 -10 12 -9 14 6 8 10 -4 35 -8 55 -8z m-633 -19
c3 -5 15 -10 26 -10 12 0 19 -5 17 -12 -3 -8 -27 -14 -67 -15 -44 -1 -61 2
-58 10 2 7 14 11 25 9 13 -2 25 3 28 12 7 18 20 21 29 6z m724 -17 c-7 -10
-14 -20 -16 -22 -1 -1 -7 0 -13 4 -8 5 -5 11 7 21 25 19 38 17 22 -3z m66 -13
c-3 -5 -11 -10 -16 -10 -6 0 -7 5 -4 10 3 6 11 10 16 10 6 0 7 -4 4 -10z m85
-63 c0 -13 -53 -4 -57 10 -2 6 6 13 19 15 22 3 38 -7 38 -25z m-1090 -7 c0 -5
-4 -10 -10 -10 -5 0 -10 5 -10 10 0 6 5 10 10 10 6 0 10 -4 10 -10z m-27 -24
c4 -9 14 -12 26 -9 16 4 21 1 21 -15 0 -13 -6 -19 -17 -18 -11 0 -18 -6 -17
-14 1 -9 -7 -16 -18 -16 -14 0 -18 6 -15 18 3 10 -2 22 -10 27 -14 7 -14 11
-2 24 18 20 25 21 32 3z m1033 7 c-3 -4 -23 -8 -44 -10 -26 -2 -33 0 -22 7 17
11 77 14 66 3z m-86 -13 c0 -4 -6 -10 -12 -13 -16 -5 -39 3 -34 12 7 10 46 11
46 1z m310 -46 c-1 -4 4 -11 12 -15 10 -7 9 -9 -4 -9 -22 0 -30 14 -21 36 6
16 17 6 13 -12z m-49 -12 c-7 -2 -18 1 -23 6 -8 8 -4 9 13 5 13 -4 18 -8 10
-11z m-51 -23 c0 -10 5 -19 10 -19 6 0 10 -9 10 -20 0 -13 -7 -20 -20 -20 -11
0 -20 -4 -20 -10 0 -5 -9 -10 -20 -10 -11 0 -20 -4 -20 -10 0 -5 9 -10 20 -10
13 0 20 -7 20 -20 0 -13 7 -20 20 -20 18 0 20 -7 20 -80 0 -47 4 -80 10 -80 6
0 10 9 10 20 0 13 7 20 20 20 13 0 20 7 20 20 0 14 7 20 21 20 17 0 20 5 17
38 -3 35 -5 37 -40 40 -37 3 -38 4 -38 43 l0 41 60 -4 c43 -2 60 1 60 10 0 6
5 12 10 12 6 0 10 -22 10 -50 0 -27 5 -50 10 -50 6 0 10 9 10 20 0 21 26 28
32 8 3 -7 10 -8 17 -4 11 7 11 10 0 17 -7 4 -10 11 -7 14 4 4 26 -11 50 -34
24 -22 37 -41 31 -41 -7 0 -13 4 -13 10 0 5 -7 7 -15 4 -8 -4 -15 -1 -15 5 0
6 -7 11 -16 11 -9 0 -12 -5 -8 -12 5 -7 2 -9 -8 -5 -12 4 -14 1 -11 -14 3 -10
14 -19 24 -19 12 0 19 -7 19 -19 0 -11 7 -21 16 -23 13 -3 16 -29 17 -191 1
-103 -2 -188 -6 -190 -5 -1 -5 -10 -2 -20 4 -9 11 -14 16 -11 5 3 9 -2 9 -10
0 -9 7 -16 15 -16 8 0 15 9 15 20 0 19 7 20 118 19 64 0 145 -3 180 -6 l62 -5
0 -34 c0 -27 4 -34 20 -34 17 0 20 7 20 48 0 27 3 51 6 55 9 9 35 -4 28 -14
-3 -5 6 -9 20 -9 20 0 26 5 26 21 0 16 5 20 19 16 13 -3 18 -1 15 8 -3 7 3 15
13 17 34 7 64 -5 73 -28 5 -12 17 -27 27 -33 17 -11 17 -12 -1 -26 -11 -8 -16
-15 -11 -15 4 0 1 -8 -8 -18 -10 -10 -14 -21 -11 -24 3 -3 0 -9 -7 -14 -7 -4
-10 -3 -7 2 3 5 2 18 -3 29 -6 17 -8 16 -9 -10 -1 -16 -4 -24 -7 -17 -8 21
-23 13 -23 -14 0 -17 4 -23 13 -18 8 5 7 2 -2 -9 -10 -12 -17 -14 -26 -7 -14
12 -30 -14 -19 -32 3 -5 -3 -18 -15 -29 -12 -11 -21 -15 -21 -9 0 6 7 13 15
16 22 9 19 23 -4 17 -11 -3 -21 2 -25 12 -3 9 -11 13 -16 10 -7 -4 -7 -11 -2
-18 16 -21 22 -47 10 -44 -6 1 -16 -7 -22 -18 -13 -23 -41 -33 -33 -12 3 8 -4
14 -19 15 -20 1 -24 -3 -24 -28 0 -17 5 -30 10 -30 6 0 10 5 10 11 0 5 5 7 12
3 9 -6 9 -9 0 -12 -7 -2 -12 -13 -12 -25 0 -14 -3 -18 -8 -10 -4 7 -13 9 -21
4 -7 -5 -11 -13 -7 -19 3 -6 2 -13 -3 -16 -5 -4 -8 5 -6 19 2 20 -2 25 -21 25
-28 0 -37 -13 -29 -41 5 -16 10 -18 21 -8 22 18 16 3 -8 -23 -34 -35 -76 -59
-83 -48 -10 15 -35 12 -35 -5 0 -8 -8 -15 -17 -15 -15 0 -15 2 -4 9 12 8 12
12 -2 26 -10 9 -15 21 -12 26 4 5 1 9 -6 9 -6 0 -9 -8 -6 -20 9 -33 -7 -30
-50 10 -23 21 -44 35 -47 32 -3 -3 -6 -1 -6 5 0 6 7 16 15 23 10 9 15 9 15 1
0 -6 5 -11 10 -11 13 0 13 11 0 30 -9 13 -12 13 -21 -2 -5 -10 -15 -18 -20
-18 -6 0 -7 5 -4 10 3 6 -1 10 -10 10 -9 0 -13 -4 -10 -10 13 -22 -8 -8 -32
20 -13 17 -28 28 -32 26 -11 -7 -46 57 -43 79 2 12 0 16 -5 9 -10 -14 -43 -14
-44 0 0 6 0 32 1 59 1 41 -1 47 -19 47 -12 0 -21 5 -21 10 0 6 5 10 10 10 16
0 12 17 -6 24 -22 9 -85 -4 -78 -15 9 -15 -3 -10 -17 8 -10 11 -10 14 -1 9 18
-11 15 5 -4 19 -15 10 -15 13 2 30 13 13 15 20 6 23 -6 2 -12 10 -12 18 0 16
-2 16 -24 8 -9 -3 -13 -10 -10 -15 3 -5 0 -9 -5 -9 -14 0 -14 17 -1 25 6 4 8
11 4 16 -3 6 -11 5 -21 -2 -12 -11 -14 -10 -13 2 4 27 0 40 -11 34 -6 -4 -13
2 -16 14 -3 12 -9 21 -13 21 -4 0 -6 16 -3 35 4 34 -10 49 -20 23 -3 -7 -6 -3
-6 10 -1 12 -7 22 -13 23 -10 0 -10 2 0 6 6 2 12 11 12 19 0 8 -6 11 -15 8
-11 -5 -15 1 -15 25 0 20 5 31 14 31 15 0 26 21 26 51 0 27 -19 24 -30 -6 -5
-14 -13 -25 -18 -25 -17 0 -21 12 -9 31 9 14 9 21 -1 31 -17 17 -16 68 2 68
11 0 13 9 9 35 -4 23 -2 35 6 35 6 0 11 -16 11 -35 0 -19 5 -35 10 -35 6 0 10
18 10 40 0 22 -4 40 -10 40 -5 0 -10 9 -10 20 0 18 -3 19 -20 10 -14 -7 -20
-7 -20 0 0 5 5 10 11 10 5 0 8 4 5 8 -6 10 27 12 34 2 9 -13 50 -22 50 -11 0
6 -6 10 -12 9 -7 -2 -13 4 -13 12 0 8 8 15 17 15 9 0 20 3 24 7 11 11 24 -1
24 -23z m-158 -31 c-6 -6 -15 -8 -19 -4 -4 4 -1 11 7 16 19 12 27 3 12 -12z
m-11 -57 c6 9 8 2 6 -23 -1 -21 -5 -38 -8 -38 -8 0 -20 55 -18 79 1 9 4 5 6
-8 4 -19 7 -21 14 -10z m809 -91 l0 -40 -80 0 -80 0 0 40 0 40 80 0 80 0 0
-40z m-791 -23 c0 -21 -1 -21 -9 -2 -12 28 -12 37 0 30 6 -3 10 -16 9 -28z
m491 23 c0 -5 -4 -10 -10 -10 -5 0 -10 5 -10 10 0 6 5 10 10 10 6 0 10 -4 10
-10z m32 -47 c-6 -2 -10 -9 -6 -14 3 -5 0 -9 -5 -9 -6 0 -11 7 -11 15 0 8 8
15 18 14 10 0 12 -3 4 -6z m-1932 -148 c0 -8 -7 -15 -15 -15 -16 0 -20 12 -8
23 11 12 23 8 23 -8z m2027 1 c4 -5 3 -6 -4 -3 -6 4 -13 2 -15 -5 -5 -13 -38
-4 -38 10 0 11 46 9 57 -2z m153 -82 c0 -3 -5 -14 -11 -25 -9 -18 -8 -20 13
-19 13 1 32 2 43 1 17 -1 18 -3 5 -11 -20 -13 -77 -13 -85 0 -4 6 -12 7 -18 3
-7 -5 -48 -8 -93 -8 -70 0 -80 2 -76 17 5 19 93 29 120 13 30 -17 45 -14 64
11 18 22 38 32 38 18z m222 -49 c15 6 32 -28 20 -39 -11 -12 -35 -6 -48 12
-12 16 -13 15 -15 -8 -1 -14 0 -32 1 -40 1 -8 -2 -12 -6 -7 -11 11 -11 96 1
101 6 2 15 -3 21 -10 6 -8 18 -12 26 -9z m-92 -99 c0 -2 -7 -7 -16 -10 -8 -3
-12 -2 -9 4 6 10 25 14 25 6z m-630 -106 c6 -11 8 -20 6 -20 -3 0 -10 9 -16
20 -6 11 -8 20 -6 20 3 0 10 -9 16 -20z m45 -48 c-3 -3 -11 0 -18 7 -9 10 -8
11 6 5 10 -3 15 -9 12 -12z m975 -2 c0 -5 -9 -14 -19 -19 -17 -10 -18 -8 -8
13 11 23 27 26 27 6z m-1040 -100 c0 -13 -1 -13 -10 0 -5 8 -10 22 -10 30 0
13 1 13 10 0 5 -8 10 -22 10 -30z m1240 20 c10 0 20 -5 22 -10 2 -7 15 -6 35
2 26 10 35 10 45 -1 11 -10 10 -15 -2 -24 -20 -16 -46 -62 -29 -52 7 5 10 3 7
-6 -2 -7 -15 -13 -29 -13 -21 -1 -24 5 -27 37 -3 33 -6 37 -31 37 -36 0 -43 8
-29 34 7 13 13 16 16 8 2 -6 12 -12 22 -12z m345 8 c14 -6 25 -15 25 -20 0
-11 -28 -10 -35 2 -3 6 -30 11 -58 12 l-52 1 45 7 c25 4 46 8 47 8 1 1 14 -3
28 -10z m-407 -25 c2 -8 -5 -13 -17 -13 -12 0 -21 6 -21 16 0 18 31 15 38 -3z
m-470 -7 c-7 -8 -15 -12 -17 -11 -5 6 10 25 20 25 5 0 4 -6 -3 -14z m732 -16
c5 0 12 5 15 10 3 6 12 10 18 9 9 0 8 -2 -1 -6 -6 -2 -10 -8 -7 -13 3 -4 -6
-10 -20 -12 -13 -3 -22 -1 -19 3 3 5 1 9 -5 9 -6 0 -7 8 -3 18 6 16 7 16 10 0
2 -10 7 -18 12 -18z m-60 16 c0 -3 -4 -8 -10 -11 -5 -3 -10 -1 -10 4 0 6 5 11
10 11 6 0 10 -2 10 -4z m167 -2 c-3 -3 -12 -4 -19 -1 -8 3 -5 6 6 6 11 1 17
-2 13 -5z m-1502 -24 c3 -5 1 -10 -4 -10 -6 0 -11 5 -11 10 0 6 2 10 4 10 3 0
8 -4 11 -10z m1350 -18 c-9 -9 -75 -10 -70 -1 3 4 21 8 40 7 19 -1 33 -3 30
-6z m-260 -151 c-3 -6 -11 -8 -17 -5 -6 4 -5 9 3 15 16 10 23 4 14 -10z m340
-108 c-20 -44 -23 -58 -13 -65 7 -4 16 -8 20 -8 19 0 93 -79 109 -115 64 -139
-29 -319 -176 -341 l-45 -6 6 -42 c22 -150 65 -286 90 -286 8 0 37 11 64 25
76 39 133 48 178 30 78 -33 120 -100 107 -174 -24 -143 -177 -189 -269 -81
-14 18 -29 43 -32 56 -5 18 -12 24 -28 22 -17 -2 -21 -10 -22 -38 0 -30 -18
-80 -28 -80 -2 0 -39 14 -82 31 -224 90 -372 280 -391 503 l-6 73 53 6 c50 6
100 29 100 45 0 4 -4 13 -9 21 -8 12 -15 11 -51 -3 -23 -9 -51 -14 -62 -10
-17 5 -19 12 -13 42 17 100 128 266 222 334 67 49 143 86 211 102 96 24 95 24
67 -41z m-940 8 c7 -12 -12 -24 -25 -16 -11 7 -4 25 10 25 5 0 11 -4 15 -9z
m432 -106 c0 -8 -6 -16 -13 -19 -10 -4 -12 8 -5 32 3 9 18 -1 18 -13z m-112
-185 c-28 -12 -55 -12 -55 0 0 6 17 10 38 9 30 0 33 -2 17 -9z m95 0 c0 -5 -4
-10 -9 -10 -6 0 -13 5 -16 10 -3 6 1 10 9 10 9 0 16 -4 16 -10z m-1630 -180
c0 -5 -8 -10 -17 -10 -15 0 -16 2 -3 10 19 12 20 12 20 0z m171 -57 c16 4 19
0 19 -26 0 -24 3 -28 10 -17 8 12 10 9 10 -12 0 -14 3 -33 6 -42 3 -9 1 -16
-6 -16 -6 0 -9 4 -6 9 3 5 -1 11 -9 15 -8 3 -15 12 -15 21 0 8 -6 15 -12 16
-10 0 -10 2 -1 6 10 3 10 7 0 18 -9 9 -14 10 -19 1 -5 -6 -8 -2 -8 11 0 12 -5
25 -11 29 -8 4 -7 9 2 15 10 6 15 2 17 -12 3 -15 9 -19 23 -16z m-344 -13 c-1
-11 -7 -20 -14 -20 -11 0 -11 4 -1 20 7 11 14 20 15 20 1 0 1 -9 0 -20z m-127
-11 c0 -15 -18 -19 -23 -6 -3 8 1 14 9 14 8 0 14 -4 14 -8z m827 -14 c-15 -16
-19 -13 -11 9 3 9 10 13 15 10 5 -3 3 -11 -4 -19z m-862 -5 c-3 -5 -12 -10
-18 -10 -7 0 -6 4 3 10 19 12 23 12 15 0z m895 -159 c0 -16 5 -31 11 -33 15
-5 0 -58 -16 -58 -9 0 -12 11 -8 39 3 22 1 41 -5 45 -6 4 -9 13 -5 21 9 25 23
17 23 -14z m-1150 -12 c0 -5 -4 -7 -10 -4 -5 3 -10 1 -10 -6 0 -7 -3 -10 -6
-6 -8 7 4 27 17 27 5 0 9 -5 9 -11z m1128 -244 c1 -19 -2 -35 -7 -35 -11 0
-21 38 -14 56 9 25 20 15 21 -21z m-1398 -21 c0 -11 -5 -14 -16 -10 -9 3 -21
6 -27 6 -16 0 14 20 31 20 6 0 12 -7 12 -16z m267 -36 c-3 -8 -6 -5 -6 6 -1
11 2 17 5 13 3 -3 4 -12 1 -19z m1103 -80 c0 -5 -4 -8 -10 -8 -5 0 -10 10 -10
23 0 18 2 19 10 7 5 -8 10 -18 10 -22z m1445 2 c-3 -5 -18 -10 -33 -9 l-27 1
25 8 c35 11 42 11 35 0z m105 -35 c-7 -8 -16 -15 -20 -15 -4 0 -10 7 -14 15
-4 11 2 15 21 15 21 0 24 -2 13 -15z m-1260 -25 c0 -12 5 -17 14 -14 23 9 31
-18 10 -33 -21 -15 -40 -12 -36 7 1 7 -2 18 -9 26 -11 14 -5 34 12 34 5 0 9
-9 9 -20z m-84 -21 c3 -6 1 -15 -6 -19 -9 -5 -9 -13 -2 -27 11 -19 6 -63 -7
-63 -19 1 -34 19 -24 32 5 7 9 30 8 51 -2 36 15 51 31 26z m-16 -129 c0 -5 8
-10 17 -10 13 0 14 -3 6 -11 -9 -9 -16 -8 -27 4 -18 18 -20 27 -6 27 6 0 10
-4 10 -10z m25 -50 c3 -5 -1 -10 -9 -10 -9 0 -16 5 -16 10 0 6 4 10 9 10 6 0
13 -4 16 -10z"/>
<path d="M2351 4914 c0 -11 3 -14 6 -6 3 7 2 16 -1 19 -3 4 -6 -2 -5 -13z"/>
<path d="M2408 4748 c4 -40 15 -49 26 -22 11 29 6 52 -12 56 -15 4 -17 -1 -14
-34z"/>
<path d="M2452 4718 c-17 -17 -15 -57 3 -64 8 -4 13 -10 10 -14 -3 -5 -1 -11
5 -15 6 -4 10 7 10 27 0 25 -3 29 -10 18 -8 -12 -10 -12 -10 -1 0 8 7 19 17
26 9 7 13 17 9 23 -9 15 -19 15 -34 0z"/>
<path d="M2567 4633 c-19 -19 -5 -33 33 -33 33 0 40 -3 40 -20 0 -13 7 -20 20
-20 17 0 20 7 20 40 l0 40 -53 0 c-30 0 -57 -3 -60 -7z"/>
<path d="M3390 4508 c0 -4 -11 -8 -25 -8 -14 0 -25 -4 -25 -10 0 -14 22 -12
58 6 37 18 40 23 12 21 -11 -1 -20 -5 -20 -9z"/>
<path d="M3328 4403 c-37 -6 -36 -23 2 -23 20 0 30 5 30 15 0 8 -1 14 -2 14
-2 -1 -15 -4 -30 -6z"/>
<path d="M2770 4220 c14 -10 27 -17 29 -14 6 5 -31 33 -44 33 -5 1 1 -8 15
-19z"/>
<path d="M3060 4080 c0 -6 7 -10 15 -10 8 0 15 2 15 4 0 2 -7 6 -15 10 -8 3
-15 1 -15 -4z"/>
<path d="M4097 3063 c-23 -22 -1 -41 95 -85 102 -47 128 -50 128 -18 0 12 -29
31 -101 63 -106 49 -112 51 -122 40z"/>
<path d="M1700 5290 c0 -5 10 -10 23 -10 18 0 19 2 7 10 -19 13 -30 13 -30 0z"/>
<path d="M2161 5114 c0 -11 3 -14 6 -6 3 7 2 16 -1 19 -3 4 -6 -2 -5 -13z"/>
<path d="M1440 5101 c0 -15 6 -21 21 -21 14 0 19 5 17 17 -5 26 -38 29 -38 4z"/>
<path d="M865 4530 c3 -5 8 -10 11 -10 2 0 4 5 4 10 0 6 -5 10 -11 10 -5 0 -7
-4 -4 -10z"/>
<path d="M2240 4411 c0 -5 -8 -12 -17 -14 -11 -3 -7 -5 10 -6 18 -1 27 4 27
14 0 8 -4 15 -10 15 -5 0 -10 -4 -10 -9z"/>
<path d="M1990 4400 c-13 -9 -13 -12 3 -21 13 -8 15 -14 7 -29 -13 -24 -1 -31
36 -20 24 7 25 8 7 9 -13 1 -23 6 -23 11 0 11 59 13 87 3 16 -6 15 -8 -7 -14
-17 -6 -8 -8 31 -7 30 1 59 -1 65 -4 17 -10 70 -19 56 -10 -8 5 -12 13 -10 18
1 5 -14 10 -35 12 -29 2 -37 7 -33 18 3 9 -1 14 -13 14 -11 0 -21 -5 -23 -12
-6 -16 -104 15 -100 31 3 14 -28 14 -48 1z"/>
<path d="M810 4380 c0 -11 7 -20 15 -20 8 0 15 9 15 20 0 11 -7 20 -15 20 -8
0 -15 -9 -15 -20z"/>
<path d="M2463 4353 c-20 -8 -15 -33 6 -33 14 0 18 5 14 20 -3 11 -6 20 -7 19
0 0 -7 -3 -13 -6z"/>
<path d="M1900 4320 c0 -20 35 -28 60 -14 l25 15 -27 -6 c-16 -3 -28 -1 -28 5
0 5 -7 10 -15 10 -8 0 -15 -4 -15 -10z"/>
<path d="M900 4280 c0 -38 2 -40 30 -40 27 0 30 3 30 30 0 23 -4 30 -20 30
-11 0 -20 5 -20 10 0 6 -4 10 -10 10 -5 0 -10 -18 -10 -40z"/>
<path d="M2290 4310 c0 -5 7 -10 16 -10 8 0 12 -4 9 -10 -3 -5 -1 -10 5 -10 7
0 9 7 6 16 -3 9 -6 18 -6 20 0 2 -7 4 -15 4 -8 0 -15 -4 -15 -10z"/>
<path d="M2348 4295 c-4 -20 3 -32 36 -58 47 -38 78 -58 59 -37 -6 7 -9 20 -6
29 3 11 2 12 -4 4 -16 -22 -36 2 -30 36 5 23 3 31 -8 31 -8 0 -15 5 -15 10 0
21 -28 9 -32 -15z"/>
<path d="M1853 4270 c-3 -11 -10 -20 -17 -20 -6 0 -19 -15 -29 -33 l-19 -32
37 35 c43 41 61 70 44 70 -6 0 -13 -9 -16 -20z"/>
<path d="M3627 4266 c-4 -10 -5 -21 -2 -24 9 -9 17 6 13 25 -3 17 -4 17 -11
-1z"/>
<path d="M1750 4243 c-10 -12 -11 -18 -2 -21 7 -2 12 -20 12 -40 0 -26 3 -33
9 -23 5 8 7 21 4 28 -3 8 4 21 16 29 24 17 29 39 6 30 -8 -3 -15 -1 -15 4 0
15 -13 11 -30 -7z"/>
<path d="M480 4200 l0 -40 -40 0 -40 0 0 -40 0 -40 -40 0 -40 0 0 -40 0 -40
-40 0 -40 0 0 -40 0 -40 -40 0 -40 0 0 -137 c1 -125 2 -136 16 -118 12 16 17
17 23 6 15 -24 46 -8 49 24 2 22 -4 37 -23 55 -25 23 -33 50 -16 50 5 0 16 3
25 6 12 5 16 0 16 -20 0 -23 4 -26 35 -26 l34 0 3 -77 3 -78 78 -3 77 -3 0 31
c0 23 -4 30 -20 30 -11 0 -20 5 -20 10 0 6 -18 10 -40 10 l-40 0 0 40 0 40 40
0 c33 0 40 3 40 20 0 13 7 20 20 20 11 0 20 5 20 10 0 6 -9 10 -20 10 -11 0
-20 5 -20 10 0 6 -18 10 -40 10 l-40 0 0 60 c0 47 -3 60 -15 60 -12 0 -15 -13
-15 -55 0 -44 -3 -53 -15 -49 -11 4 -13 2 -9 -9 9 -24 -15 -31 -37 -11 -12 10
-17 24 -13 33 3 9 7 21 8 26 5 27 29 56 41 51 8 -3 17 4 21 16 13 42 71 99
112 112 12 4 20 11 17 15 -2 5 9 23 27 41 27 28 32 30 40 16 6 -11 17 -14 34
-10 29 7 33 -12 4 -21 -11 -3 -25 -15 -30 -26 -14 -26 -32 -24 -28 3 2 11 -3
23 -9 25 -8 3 -13 -5 -13 -21 0 -19 -5 -26 -20 -26 -15 0 -20 -7 -20 -25 0
-14 -4 -25 -10 -25 -21 0 -50 -41 -50 -70 0 -23 4 -30 20 -30 14 0 20 -7 20
-21 0 -11 5 -17 10 -14 6 3 10 22 10 41 0 27 4 34 20 34 11 0 20 5 20 10 0 6
-9 10 -20 10 -11 0 -20 5 -20 10 0 6 18 10 40 10 22 0 40 5 40 10 0 6 -9 10
-20 10 -11 0 -20 5 -20 10 0 6 14 10 30 10 23 0 30 -4 30 -20 0 -13 7 -20 20
-20 17 0 20 -7 20 -40 0 -22 5 -40 10 -40 6 0 10 18 10 39 0 39 1 40 38 43
l37 3 2 73 c2 56 0 72 -11 72 -8 0 -16 7 -20 15 -7 20 -32 19 -41 -2 -6 -17
-7 -17 -16 0 -11 19 -3 41 12 31 6 -3 16 2 23 12 9 12 15 14 20 6 11 -19 33
-14 39 8 5 19 0 20 -99 20 l-104 0 0 -40z m-260 -469 c0 -11 -26 -22 -34 -14
-12 12 -5 23 14 23 11 0 20 -4 20 -9z"/>
<path d="M707 4193 c-4 -3 -7 -30 -7 -60 0 -46 3 -53 20 -53 14 0 20 -7 20
-21 0 -11 5 -17 10 -14 6 3 10 22 10 41 0 27 4 34 20 34 13 0 20 -7 20 -20 0
-13 7 -20 20 -20 16 0 20 7 20 30 0 23 -4 30 -20 30 -13 0 -20 7 -20 20 0 16
-7 20 -30 20 -16 0 -30 5 -30 10 0 11 -23 14 -33 3z m10 -45 c-3 -7 -5 -2 -5
12 0 14 2 19 5 13 2 -7 2 -19 0 -25z"/>
<path d="M2465 4190 c3 -5 8 -10 11 -10 2 0 4 5 4 10 0 6 -5 10 -11 10 -5 0
-7 -4 -4 -10z"/>
<path d="M1679 4168 c0 -2 -2 -24 -4 -50 -3 -39 -1 -50 15 -58 26 -14 32 -13
28 8 -2 9 6 27 19 39 28 27 29 33 4 33 -10 0 -24 7 -31 15 -11 13 -28 20 -31
13z"/>
<path d="M2480 4140 c0 -13 7 -20 20 -20 24 0 27 25 4 34 -23 9 -24 8 -24 -14z"/>
<path d="M2700 4050 c0 -5 5 -10 11 -10 5 0 7 5 4 10 -3 6 -8 10 -11 10 -2 0
-4 -4 -4 -10z"/>
<path d="M1681 4034 c0 -11 3 -14 6 -6 3 7 2 16 -1 19 -3 4 -6 -2 -5 -13z"/>
<path d="M2720 4010 c0 -5 5 -10 10 -10 6 0 10 5 10 10 0 6 -4 10 -10 10 -5 0
-10 -4 -10 -10z"/>
<path d="M740 3960 c0 -38 2 -40 30 -40 27 0 30 3 30 30 0 23 -4 30 -20 30
-11 0 -20 5 -20 10 0 6 -4 10 -10 10 -5 0 -10 -18 -10 -40z"/>
<path d="M1679 3973 c-1 -4 -2 -59 -3 -120 -3 -117 -1 -122 39 -107 14 6 14 8
0 31 -12 17 -16 48 -16 108 0 46 -4 87 -9 90 -6 3 -11 3 -11 -2z m8 -135 c-3
-7 -5 -2 -5 12 0 14 2 19 5 13 2 -7 2 -19 0 -25z"/>
<path d="M2570 3950 c0 -20 5 -30 15 -30 10 0 15 10 15 30 0 20 -5 30 -15 30
-10 0 -15 -10 -15 -30z"/>
<path d="M285 3900 c-3 -5 -1 -10 4 -10 6 0 11 5 11 10 0 6 -2 10 -4 10 -3 0
-8 -4 -11 -10z"/>
<path d="M2521 3813 c-16 -17 -12 -23 11 -14 10 3 14 11 10 17 -5 9 -11 8 -21
-3z"/>
<path d="M3410 3760 c-9 -6 -10 -10 -3 -10 6 0 19 -3 27 -6 12 -5 15 -2 10 10
-7 18 -13 20 -34 6z"/>
<path d="M1720 3728 c1 -16 24 -48 35 -48 5 0 0 9 -9 19 -10 11 -15 25 -11 30
3 6 1 11 -4 11 -6 0 -11 -6 -11 -12z"/>
<path d="M160 3419 l0 -222 55 6 c53 5 56 5 70 -24 17 -31 8 -37 -26 -19 -18
10 -19 7 -19 -55 l0 -65 40 0 40 0 0 -40 0 -40 40 0 40 0 0 -40 0 -40 76 0
c71 0 75 1 69 20 -5 16 -2 20 15 20 13 0 20 5 17 13 -5 14 -50 11 -55 -3 -6
-16 -22 -1 -22 19 0 10 -10 26 -22 34 -19 13 -20 16 -5 16 27 1 23 47 -5 54
-12 4 -25 2 -29 -4 -4 -7 -15 -6 -33 2 -20 10 -29 10 -38 1 -9 -9 -7 -12 10
-12 14 0 22 -6 22 -16 0 -15 -3 -14 -27 2 -16 10 -34 24 -42 32 -13 12 -12 15
2 24 12 6 15 14 8 26 -5 9 -12 43 -16 75 l-7 57 -39 0 c-32 0 -41 5 -51 25
-13 28 -4 45 14 27 7 -7 27 -12 45 -12 26 0 33 4 33 20 0 16 -7 20 -35 20 -28
0 -35 4 -35 20 0 11 -7 20 -15 20 -9 0 -15 9 -15 25 0 14 5 25 10 25 6 0 10 7
10 15 0 8 -3 15 -6 15 -13 0 -33 -35 -34 -58 0 -14 -4 -21 -11 -17 -6 4 -8 9
-5 12 3 3 1 14 -5 24 -7 15 -6 19 6 19 19 0 20 16 0 24 -30 11 -17 36 20 36
28 0 35 4 35 20 0 13 7 20 20 20 13 0 20 7 20 20 0 14 -7 20 -21 20 -18 0 -20
4 -14 29 7 33 -7 48 -25 26 -18 -21 -40 -19 -40 5 0 11 -4 20 -10 20 -6 0 -10
-80 -10 -221z m50 -109 c0 -5 -4 -10 -9 -10 -6 0 -13 5 -16 10 -3 6 1 10 9 10
9 0 16 -4 16 -10z m228 -329 c3 -8 -1 -12 -9 -9 -7 2 -15 10 -17 17 -3 8 1 12
9 9 7 -2 15 -10 17 -17z"/>
<path d="M1770 3610 c0 -5 7 -10 16 -10 8 0 12 5 9 10 -3 6 -10 10 -16 10 -5
0 -9 -4 -9 -10z"/>
<path d="M1836 3595 c11 -8 14 -15 7 -15 -22 0 -14 -36 10 -48 34 -16 86 -20
91 -6 3 8 -3 10 -17 7 -18 -4 -19 -3 -7 6 12 8 7 11 -23 11 -23 0 -36 4 -32
10 3 6 1 10 -6 10 -7 0 -9 3 -6 7 8 8 -12 33 -26 33 -6 0 -2 -7 9 -15z"/>
<path d="M1740 3510 c0 -5 5 -10 10 -10 6 0 10 5 10 10 0 6 -4 10 -10 10 -5 0
-10 -4 -10 -10z"/>
<path d="M2025 3500 c-9 -15 -1 -23 21 -18 15 3 16 4 1 16 -11 9 -17 10 -22 2z"/>
<path d="M2490 3370 c0 -5 7 -10 16 -10 8 0 12 5 9 10 -3 6 -10 10 -16 10 -5
0 -9 -4 -9 -10z"/>
<path d="M2560 3310 c0 -23 4 -30 20 -30 16 0 20 7 20 30 0 23 -4 30 -20 30
-16 0 -20 -7 -20 -30z"/>
<path d="M2560 3130 c0 -43 3 -50 20 -50 17 0 20 7 20 50 0 43 -3 50 -20 50
-17 0 -20 -7 -20 -50z"/>
<path d="M376 3121 c-7 -11 18 -33 27 -24 4 3 7 12 7 20 0 15 -26 18 -34 4z"/>
<path d="M740 2972 c0 -15 24 -32 46 -32 26 0 42 18 22 24 -37 12 -68 15 -68
8z"/>
<path d="M520 2959 c0 -5 5 -7 10 -4 6 3 10 8 10 11 0 2 -4 4 -10 4 -5 0 -10
-5 -10 -11z"/>
<path d="M560 2856 c0 -11 9 -16 31 -16 18 0 28 -4 24 -10 -4 -6 -10 -8 -15
-5 -4 3 -13 -2 -20 -10 -11 -13 -8 -15 17 -15 38 0 44 7 31 36 -7 15 -17 23
-26 19 -8 -3 -21 0 -28 6 -11 9 -14 8 -14 -5z"/>
<path d="M1660 1136 c0 -2 8 -10 18 -17 15 -13 16 -12 3 4 -13 16 -21 21 -21
13z"/>
</g>
</svg>
