<?xml version="1.0" standalone="no"?>
<!DOCTYPE svg PUBLIC "-//W3C//DTD SVG 20010904//EN"
 "http://www.w3.org/TR/2001/REC-SVG-20010904/DTD/svg10.dtd">
<svg version="1.0" xmlns="http://www.w3.org/2000/svg"
 width="600.000000pt" height="600.000000pt" viewBox="0 0 600.000000 600.000000"
 preserveAspectRatio="xMidYMid meet">
<metadata>
Created by potrace 1.16, written by Peter Selinger 2001-2019
</metadata>
<g transform="translate(0.000000,600.000000) scale(0.100000,-0.100000)"
fill="#000000" stroke="none">
<path d="M2176 5102 c-47 -25 -57 -26 -205 -27 -170 -2 -205 -10 -292 -66 -58
-37 -133 -116 -184 -192 -36 -55 -39 -57 -57 -41 -17 16 -18 16 -19 -12 -1
-16 -1 -34 0 -41 1 -7 -12 -36 -28 -65 -85 -151 -113 -352 -72 -521 25 -106
75 -217 135 -301 24 -34 50 -81 57 -104 l12 -43 -78 -114 c-66 -96 -76 -117
-65 -130 7 -8 16 -15 20 -15 5 0 49 58 98 128 83 118 93 138 127 248 20 65 43
139 52 164 8 25 17 64 20 86 5 42 5 42 31 28 52 -27 147 -11 181 30 25 29 -1
40 -40 17 -75 -46 -166 -13 -190 68 -15 51 1 100 47 141 28 24 44 30 82 30 53
0 101 -25 128 -65 9 -14 23 -25 30 -25 17 0 18 32 2 48 -17 17 32 16 102 -3
112 -30 201 -15 230 39 8 17 22 26 37 26 58 0 133 57 133 101 0 27 25 23 76
-11 40 -28 44 -35 44 -72 0 -40 -1 -41 -19 -24 -10 10 -33 18 -51 18 -101 3
-169 -167 -126 -314 37 -130 145 -167 210 -72 49 73 50 -21 0 -123 -62 -129
-198 -238 -338 -272 -70 -17 -181 -15 -260 5 -37 9 -69 14 -73 11 -12 -13 7
-35 37 -42 28 -6 30 -9 25 -38 -44 -237 -60 -370 -49 -385 25 -33 40 8 68 178
15 91 30 177 32 193 l6 27 91 0 c51 0 117 7 147 15 146 39 277 144 347 280 30
60 40 72 54 65 28 -16 41 9 19 38 -11 14 -20 33 -20 43 0 15 5 17 29 13 83
-17 159 152 130 289 -27 126 -100 188 -167 141 -12 -8 -22 -11 -22 -6 0 13 28
35 83 67 26 15 47 31 47 37 0 5 21 29 48 53 62 56 86 97 69 117 -7 9 -46 26
-87 38 -65 19 -270 107 -270 116 0 2 11 20 25 40 34 50 32 88 -6 126 l-30 31
-110 -7 c-104 -6 -109 -5 -109 13 0 25 -36 51 -70 50 -14 0 -47 -12 -74 -27z
m481 -949 c-3 -10 -5 -2 -5 17 0 19 2 27 5 18 2 -10 2 -26 0 -35z"/>
<path d="M4415 4860 c18 -20 17 -20 -722 -20 -612 0 -743 -2 -752 -14 -8 -10
-10 -299 -9 -1077 l3 -1064 478 -3 478 -2 -25 -43 c-29 -50 -66 -167 -66 -208
l0 -29 -32 20 c-53 32 -114 23 -146 -22 -13 -17 -41 -18 -593 -18 -318 0 -579
-4 -579 -8 0 -5 43 -97 95 -204 89 -184 96 -196 126 -202 18 -3 38 -11 46 -17
17 -15 17 -50 -2 -75 -21 -28 -20 -36 32 -171 41 -109 49 -123 70 -123 13 0
23 5 23 11 0 5 5 7 10 4 6 -4 41 -3 78 1 37 5 57 10 45 12 -13 2 -23 7 -23 12
0 5 -7 7 -15 4 -8 -4 -15 -1 -15 5 0 14 36 10 69 -8 23 -13 28 -13 241 14 8 1
52 6 97 10 57 5 80 11 76 19 -4 6 7 -1 24 -15 30 -26 31 -26 108 -14 42 7 83
19 90 26 18 18 112 235 163 375 37 103 40 117 46 254 3 80 8 156 12 170 41
170 118 270 233 304 88 26 161 -9 161 -77 0 -41 -17 -57 -89 -88 -69 -29 -111
-90 -111 -158 0 -37 -11 -69 -57 -156 -37 -73 -54 -117 -50 -129 11 -27 23
-12 73 87 80 160 185 300 313 418 112 104 190 133 241 91 35 -28 30 -71 -11
-101 -111 -83 -419 -426 -419 -466 0 -32 31 -12 81 53 208 264 380 422 461
422 37 0 68 -27 68 -60 0 -23 -21 -52 -104 -139 -108 -114 -271 -343 -262
-367 8 -20 27 -8 63 40 67 91 206 156 334 156 56 0 73 -4 89 -20 40 -40 18
-72 -61 -89 -83 -18 -131 -44 -200 -109 -89 -84 -124 -147 -171 -309 -70 -247
-127 -331 -270 -401 -100 -48 -330 -139 -451 -178 -72 -23 -92 -34 -103 -56
-8 -16 -13 -28 -10 -28 10 0 276 97 401 147 195 77 268 117 319 174 26 29 53
49 65 49 12 0 21 5 21 11 0 6 -7 8 -16 5 -10 -4 -14 -1 -12 6 3 7 18 12 34 13
22 0 30 5 32 22 3 17 0 21 -12 17 -9 -3 -16 -1 -16 6 0 6 4 9 9 5 5 -3 12 -1
16 5 3 5 -1 10 -9 10 -13 0 -14 3 -4 19 15 25 28 17 28 -16 0 -21 3 -24 23
-19 12 3 36 6 52 7 30 2 30 2 -5 9 l-35 7 36 2 c24 1 41 -5 50 -16 11 -13 11
-15 1 -9 -9 6 -12 3 -10 -10 2 -14 -7 -20 -37 -27 -50 -12 -51 -13 -35 -32 14
-16 55 -21 45 -5 -3 6 -2 10 3 10 18 0 64 81 54 93 -7 8 -5 17 6 27 14 13 15
12 9 -5 -6 -17 -4 -16 13 4 36 43 28 49 -67 47 -78 -1 -88 -3 -85 -19 4 -21
-14 -23 -22 -2 -8 23 40 180 84 270 63 130 144 201 267 232 73 18 123 55 123
92 0 110 -164 142 -338 65 l-53 -23 32 44 c18 25 59 73 93 107 110 114 126
137 126 177 0 20 -7 47 -16 59 l-15 22 219 0 c215 0 220 0 215 -20 -5 -20 0
-20 406 -20 l411 0 0 1120 0 1120 -680 0 -680 0 0 -27 c0 -15 12 -64 27 -110
25 -77 29 -83 54 -83 24 0 33 10 65 70 21 39 43 70 50 70 6 0 14 -26 18 -62 3
-34 11 -67 16 -72 6 -6 34 16 79 65 54 58 71 70 76 58 4 -10 -5 -39 -19 -68
-14 -28 -26 -53 -26 -56 0 -3 212 -5 470 -5 l470 0 0 -975 0 -975 -650 0
c-627 0 -650 1 -650 19 0 27 -47 70 -87 77 -46 9 -99 -8 -162 -51 l-51 -34 0
740 0 739 -25 0 -25 0 0 -727 0 -726 -22 20 c-36 32 -63 43 -110 43 -65 0
-111 -17 -170 -60 l-52 -40 -478 0 -478 0 0 975 0 975 655 0 655 0 0 -28 c0
-26 25 -62 43 -62 4 0 7 20 7 45 l0 45 124 0 125 0 0 58 c0 31 -2 81 -5 110
l-6 52 -81 0 c-79 0 -80 0 -62 -20z m1193 -92 c32 -32 -4 -87 -48 -73 -25 8
-37 50 -20 70 15 18 51 20 68 3z m-261 -14 c15 -41 -35 -82 -65 -52 -13 13
-16 50 -5 61 13 13 64 7 70 -9z m507 -6 c15 -25 -23 -63 -53 -53 -16 5 -21 14
-21 41 0 34 2 35 31 32 18 -2 37 -11 43 -20z m-1731 -2238 c-38 -51 -54 -60
-33 -18 10 19 58 68 68 68 1 0 -14 -22 -35 -50z m-362 -139 c30 -30 34 -53 30
-176 -2 -42 -58 -215 -71 -215 -4 0 -10 31 -13 68 -3 37 -19 108 -36 156 -38
109 -40 159 -9 180 34 24 66 19 99 -13z m-856 -124 c41 -31 -10 -119 -94 -162
-34 -17 -109 -24 -129 -11 -7 4 -12 22 -12 41 0 85 168 180 235 132z m142
-590 c3 -4 -51 -7 -120 -7 -92 0 -127 -3 -127 -12 0 -9 -3 -9 -11 -1 -25 25 4
31 126 29 69 -1 128 -6 132 -9z m217 4 c12 -4 -30 -8 -95 -9 -77 -1 -109 1
-99 8 18 11 166 12 194 1z m-211 -28 c-7 -2 -19 -2 -25 0 -7 3 -2 5 12 5 14 0
19 -2 13 -5z m-238 -41 c-3 -3 -11 0 -18 7 -9 10 -8 11 6 5 10 -3 15 -9 12
-12z"/>
<path d="M3050 4165 l0 -416 38 30 c105 85 235 109 379 72 97 -25 163 -27 204
-5 17 8 70 52 118 97 97 91 194 160 295 209 l66 33 0 198 0 197 -550 0 -550 0
0 -415z m468 266 c76 -39 125 -116 125 -196 -1 -179 -188 -283 -340 -189 -145
90 -132 316 22 385 54 25 145 25 193 0z"/>
<path d="M4585 4518 c-3 -7 -4 -388 -3 -846 l3 -833 585 0 c321 1 588 5 592 9
5 5 7 384 6 843 l-3 834 -588 3 c-465 2 -589 0 -592 -10z m1165 -641 c0 -343
-3 -712 -7 -820 l-6 -197 -570 0 -569 0 3 813 c1 446 4 815 6 820 2 4 260 7
574 7 l569 0 0 -623z"/>
<path d="M5460 4181 c0 -22 26 -36 33 -18 6 18 -3 37 -19 37 -8 0 -14 -9 -14
-19z"/>
<path d="M5376 4163 c-3 -4 -6 -15 -6 -25 0 -24 33 -21 38 3 3 17 -21 33 -32
22z"/>
<path d="M5071 4106 c-79 -65 -160 -101 -295 -131 -28 -6 -29 -7 -22 -61 14
-117 81 -261 169 -359 63 -71 190 -175 214 -175 25 0 169 115 221 177 60 72
108 155 132 229 28 83 40 172 26 182 -6 5 -45 16 -87 26 -72 16 -78 16 -112 0
-41 -19 -51 -40 -49 -98 2 -38 -11 -66 -30 -66 -5 0 -6 5 -2 11 8 13 8 82 -1
108 -4 13 4 31 25 54 l31 36 -70 55 c-38 31 -76 56 -83 56 -7 0 -37 -20 -67
-44z m113 -40 c38 -32 39 -35 22 -51 -14 -15 -16 -28 -11 -81 7 -60 5 -66 -24
-110 -55 -84 -32 -96 74 -38 l65 36 0 57 c0 83 16 93 119 69 60 -14 62 -21 30
-119 -47 -144 -149 -286 -269 -374 l-51 -37 -39 27 c-61 42 -182 174 -218 236
-36 63 -76 166 -86 220 l-6 36 48 11 c87 20 160 52 229 102 37 28 70 50 73 50
3 -1 23 -16 44 -34z"/>
<path d="M5276 4125 c-3 -8 3 -19 13 -24 21 -12 31 -5 31 21 0 22 -35 25 -44
3z"/>
<path d="M5480 4120 c0 -13 7 -20 20 -20 13 0 20 7 20 20 0 13 -7 20 -20 20
-13 0 -20 -7 -20 -20z"/>
<path d="M5440 4045 c0 -16 6 -25 15 -25 8 0 15 9 15 19 0 10 -7 21 -15 25
-11 4 -15 -1 -15 -19z"/>
<path d="M5546 4043 c-13 -14 -5 -33 14 -33 11 0 20 6 20 14 0 15 -24 28 -34
19z"/>
<path d="M4790 3220 c-40 -25 11 -30 281 -28 236 3 274 5 274 18 0 13 -38 15
-270 18 -161 1 -276 -2 -285 -8z"/>
<path d="M4787 3123 c-4 -3 -7 -10 -7 -15 0 -4 196 -8 435 -8 380 0 435 2 435
15 0 13 -54 15 -428 15 -236 0 -432 -3 -435 -7z"/>
<path d="M4270 4382 l0 -132 25 0 c25 0 25 0 25 96 0 85 -3 99 -25 132 l-25
37 0 -133z"/>
<path d="M1762 4254 c6 -35 193 -79 193 -45 0 10 -24 21 -70 33 -131 33 -127
33 -123 12z"/>
<path d="M2243 3995 c-9 -25 26 -102 58 -130 52 -43 134 -49 134 -10 0 16 -9
21 -44 26 -52 7 -87 41 -97 94 -4 26 -11 35 -25 35 -11 0 -22 -7 -26 -15z"/>
<path d="M3057 3423 c-4 -3 -2 -12 4 -20 9 -11 110 -13 543 -13 292 0 537 4
545 9 44 28 -10 31 -543 31 -298 0 -546 -3 -549 -7z"/>
<path d="M3060 3335 c0 -13 30 -15 226 -15 176 0 225 3 222 13 -4 9 -60 13
-226 15 -193 2 -222 0 -222 -13z"/>
<path d="M3560 3335 c0 -13 39 -15 295 -15 256 0 295 2 295 15 0 13 -39 15
-295 15 -256 0 -295 -2 -295 -15z"/>
<path d="M1726 1530 c-10 -27 -56 -163 -56 -167 0 -2 32 -3 71 -3 81 0 80 -7
24 113 -21 45 -36 66 -39 57z"/>
</g>
</svg>
