<?xml version="1.0" standalone="no"?>
<!DOCTYPE svg PUBLIC "-//W3C//DTD SVG 20010904//EN"
 "http://www.w3.org/TR/2001/REC-SVG-20010904/DTD/svg10.dtd">
<svg version="1.0" xmlns="http://www.w3.org/2000/svg"
 width="500.000000pt" height="500.000000pt" viewBox="0 0 500.000000 500.000000"
 preserveAspectRatio="xMidYMid meet">
<metadata>
Created by potrace 1.16, written by Peter Selinger 2001-2019
</metadata>
<g transform="translate(0.000000,500.000000) scale(0.100000,-0.100000)"
fill="#000000" stroke="none">
<path d="M0 2500 l0 -2500 2500 0 2500 0 0 2500 0 2500 -2500 0 -2500 0 0
-2500z m2800 2060 l0 -40 160 0 160 0 0 -40 0 -40 80 0 80 0 0 -40 0 -40 67 0
c62 0 65 -1 52 -18 -8 -10 -4 -8 8 5 12 13 33 34 46 46 13 12 15 16 5 8 -16
-13 -18 -12 -18 12 0 24 4 27 33 27 26 0 38 7 57 33 14 18 16 26 7 18 -15 -12
-17 -11 -17 7 0 20 6 21 80 21 l80 0 0 -40 c0 -21 -4 -39 -10 -39 -5 0 -10
-13 -10 -29 0 -20 -6 -30 -20 -34 -11 -3 -20 -1 -20 4 0 5 -4 9 -10 9 -5 0
-10 -7 -10 -16 0 -11 -6 -15 -20 -11 -23 6 -34 -3 -86 -63 -33 -39 -34 -41 -6
-16 25 23 32 26 32 13 0 -13 9 -17 40 -17 l40 0 0 -40 0 -40 40 0 40 0 0 -40
0 -40 80 0 80 0 0 -80 0 -80 80 0 80 0 0 -80 0 -80 40 0 40 0 0 -40 0 -40 40
0 41 0 -3 -72 -3 -73 -145 -23 c-198 -31 -215 -37 -264 -86 -50 -50 -67 -93
-92 -236 l-19 -104 -40 -8 c-41 -9 -69 -29 -88 -63 -6 -11 -15 -96 -18 -190
-5 -111 -15 -201 -28 -260 -11 -49 -28 -129 -38 -177 l-17 -86 -74 146 c-149
295 -200 378 -301 486 -56 59 -151 132 -169 128 -7 -2 -11 3 -10 10 5 21 -51
17 -58 -5 -9 -28 14 -47 30 -24 12 16 14 16 20 2 3 -9 11 -13 17 -10 7 5 10
-1 8 -16 -3 -30 10 -61 22 -53 5 3 9 -2 9 -11 0 -12 6 -14 26 -9 25 6 26 5 20
-20 -4 -16 -3 -25 2 -22 6 3 9 -2 8 -12 0 -10 6 -17 19 -18 55 -3 57 -4 52
-25 -3 -13 -1 -19 6 -16 7 3 11 9 10 15 -1 5 4 13 12 16 9 3 25 -12 46 -44 18
-28 36 -50 40 -50 5 0 6 -7 3 -15 -7 -17 -25 -21 -22 -4 5 18 -42 31 -48 14
-8 -19 -34 -7 -34 16 0 16 -8 19 -49 19 -30 0 -51 -5 -55 -12 -3 -10 -9 -8
-19 5 -29 36 -53 18 -49 -36 3 -25 -23 -48 -44 -40 -13 5 -15 3 -9 -7 5 -9 4
-11 -4 -6 -6 4 -9 12 -6 17 10 16 -42 10 -74 -8 -33 -19 -37 -28 -21 -38 21
-13 9 -25 -25 -25 -34 0 -63 -28 -51 -49 3 -5 -2 -8 -12 -7 -10 0 -16 -6 -16
-16 1 -12 -5 -16 -24 -15 -20 2 -27 -4 -32 -22 -3 -14 -12 -26 -20 -29 -12 -3
-12 -2 -2 6 16 11 12 44 -5 50 -7 2 -13 -4 -13 -13 0 -9 -9 -19 -20 -22 -30
-8 -19 -28 18 -31 18 -2 32 -7 32 -12 0 -4 -8 -6 -19 -3 -21 5 -51 -21 -50
-45 0 -11 2 -12 6 -4 2 6 12 12 21 12 13 -1 11 -6 -10 -24 -18 -17 -34 -22
-53 -19 -18 4 -25 2 -23 -8 2 -8 -3 -13 -9 -11 -7 1 -13 -6 -13 -16 0 -12 -13
-23 -35 -32 -19 -7 -33 -16 -30 -18 3 -3 -5 -10 -18 -17 -26 -13 -77 -8 -55 6
9 6 7 9 -9 9 -12 0 -28 3 -37 6 -28 11 -32 -26 -5 -47 14 -11 18 -19 10 -19
-7 0 -26 -11 -43 -25 -30 -25 -58 -33 -58 -16 0 5 6 11 13 14 6 2 9 7 6 11
-11 12 -59 -40 -59 -62 0 -13 -5 -19 -13 -16 -8 3 -13 -4 -14 -16 -1 -12 2
-18 9 -14 7 4 8 2 4 -4 -4 -6 -13 -9 -21 -5 -11 3 -15 -2 -15 -17 0 -15 -5
-20 -14 -17 -11 4 -13 -1 -9 -21 7 -43 4 -87 -7 -90 -5 -2 -10 -10 -10 -18 0
-8 -5 -14 -11 -14 -8 0 -10 -19 -6 -57 3 -43 0 -69 -13 -98 -10 -22 -24 -73
-31 -112 -7 -40 -18 -74 -24 -74 -5 -1 -21 -2 -35 -3 -16 -1 -26 -8 -28 -21
-2 -11 -1 -17 3 -13 9 9 35 -9 35 -24 0 -5 -3 -7 -8 -4 -4 2 -16 -2 -27 -10
-13 -10 -15 -14 -4 -14 12 0 12 -2 -1 -9 -8 -6 -18 -7 -22 -5 -4 3 -8 -1 -8
-8 -1 -9 -5 -7 -14 5 -14 19 -46 23 -46 6 0 -5 4 -8 8 -5 4 2 14 1 22 -4 22
-14 -1 -46 -29 -42 -11 2 -21 -2 -21 -8 0 -6 6 -8 13 -5 6 4 -6 -10 -28 -29
-41 -36 -61 -46 -50 -23 4 6 -3 0 -15 -15 -12 -16 -28 -28 -36 -28 -9 0 -13
-4 -10 -9 3 -5 -1 -11 -9 -14 -8 -4 -23 5 -34 19 -11 14 -25 23 -31 19 -14 -9
-13 -55 3 -56 10 0 10 -2 0 -6 -7 -2 -13 -9 -13 -14 0 -6 5 -7 12 -3 7 4 8 3
4 -5 -4 -6 -12 -9 -17 -6 -5 4 -9 1 -9 -5 0 -6 -4 -9 -8 -6 -5 3 -14 -3 -21
-13 -9 -12 -23 -17 -42 -15 -16 2 -29 -1 -29 -6 0 -6 -9 -10 -20 -10 -11 0
-20 -5 -20 -11 0 -6 9 -8 23 -4 21 6 21 5 2 -6 -11 -7 -24 -17 -28 -23 -5 -7
-6 -4 -3 7 5 16 2 18 -27 14 -40 -6 -67 -17 -67 -27 0 -4 10 -15 23 -23 22
-14 27 -13 80 24 31 21 59 39 62 39 3 0 9 -9 13 -21 7 -19 17 -14 128 67 65
48 188 138 272 202 l152 115 0 50 c0 173 74 458 139 531 47 54 150 72 208 37
56 -34 133 -174 133 -241 0 -104 -131 -170 -201 -101 -16 16 -29 38 -29 48 0
30 29 63 56 63 17 0 24 5 24 20 0 12 -7 20 -18 20 -9 0 -23 9 -30 21 -10 16
-16 18 -27 9 -11 -9 -12 -17 -4 -31 7 -13 6 -19 -1 -19 -6 0 -18 -17 -26 -37
-53 -126 121 -218 230 -122 19 16 40 27 49 23 11 -4 2 -18 -33 -54 -75 -77
-139 -230 -96 -230 9 0 18 12 22 28 13 50 55 124 101 173 54 58 150 109 205
109 22 0 49 5 61 11 12 6 72 62 132 125 119 122 155 143 189 108 35 -34 0
-125 -110 -290 -106 -158 -291 -331 -450 -420 -35 -20 -64 -41 -64 -46 0 -20
-300 -411 -490 -638 -76 -92 -107 -136 -103 -148 4 -12 3 -14 -5 -7 -5 6 -12
19 -14 30 -2 11 -9 19 -16 18 -6 -2 -9 3 -6 10 2 7 -4 22 -14 32 -10 11 -24
29 -30 40 -6 11 -12 15 -12 9 0 -6 9 -23 20 -36 21 -27 16 -45 -7 -27 -10 9
-13 6 -11 -15 1 -14 8 -28 15 -30 6 -3 15 -21 19 -40 3 -21 12 -36 20 -36 8 0
14 -7 14 -16 0 -18 23 -44 39 -44 6 0 11 5 11 10 0 6 18 10 40 10 l40 0 0 57
c0 50 2 55 13 38 17 -22 40 -11 32 15 -5 15 -2 17 15 13 15 -4 20 -1 20 16 0
20 5 21 100 21 l100 0 0 80 0 80 -34 0 c-21 0 -36 6 -39 15 -7 18 9 30 17 13
5 -10 7 -10 12 0 3 6 14 12 25 12 10 0 19 6 19 13 0 13 43 67 54 67 3 0 6 -9
6 -20 0 -13 7 -20 20 -20 17 0 20 -7 20 -40 0 -38 2 -40 30 -40 l30 0 0 80 c0
73 2 80 20 80 16 0 20 7 20 30 0 23 -4 30 -20 30 -11 0 -20 5 -20 10 0 6 27
10 60 10 l60 0 0 40 c0 33 3 40 20 40 16 0 20 7 20 30 0 27 -3 30 -30 30 -27
0 -30 -3 -30 -30 0 -23 -4 -30 -20 -30 -13 0 -20 -7 -20 -20 0 -16 -7 -20 -30
-20 -16 0 -30 -4 -30 -9 0 -5 -9 -11 -20 -14 -13 -3 -20 0 -20 8 0 7 -6 15
-12 18 -20 7 7 31 35 32 12 0 23 7 25 18 2 11 -3 17 -13 17 -15 0 -16 2 -4 17
12 14 12 16 -1 9 -8 -5 -2 3 14 16 28 23 31 24 47 9 9 -9 19 -23 22 -31 4 -10
6 -7 6 8 1 19 6 22 41 22 l40 0 0 40 0 40 61 0 61 0 -4 90 c-3 80 -1 90 15 90
9 0 16 -6 15 -12 -2 -8 10 -13 32 -14 86 -2 80 4 80 -79 l0 -75 30 0 30 0 0
80 c0 76 -1 80 -22 80 -13 0 -32 7 -42 15 -20 15 -20 15 0 30 10 8 25 15 32
15 6 0 12 5 12 11 0 5 5 7 10 4 6 -3 10 -22 10 -41 0 -27 4 -34 20 -34 17 0
20 7 20 40 l0 40 40 0 c33 0 40 3 40 20 0 13 7 20 20 20 18 0 20 7 20 59 0 52
3 60 23 66 l22 8 -22 4 c-30 6 -32 43 -3 43 11 0 20 5 20 10 0 6 18 10 40 10
33 0 40 3 40 20 0 13 7 20 20 20 17 0 20 7 20 40 0 33 -3 40 -20 40 -13 0 -20
7 -20 20 0 13 7 20 20 20 13 0 20 7 20 20 0 11 5 20 10 20 14 0 13 20 -2 53
-14 29 -37 36 -39 12 -3 -30 -4 -34 -16 -47 -10 -9 -13 -8 -13 9 0 12 5 25 10
28 6 3 10 22 10 41 0 19 5 34 10 34 6 0 10 -6 10 -14 0 -16 27 -29 34 -17 7
10 -9 67 -17 64 -4 -2 -14 -3 -22 -3 -9 0 -20 -10 -25 -22 -7 -19 -9 -20 -11
-5 -1 9 -2 21 -3 25 0 5 -9 17 -20 27 -12 12 -14 21 -7 23 17 6 13 30 -6 35
-11 3 -8 5 9 6 24 1 26 4 19 24 -11 30 -44 29 -51 -3 -4 -17 -13 -26 -30 -27
l-25 -3 23 10 c30 13 19 30 -19 30 -29 0 -40 -14 -16 -23 9 -4 9 -6 -1 -6 -7
-1 -17 10 -22 24 -12 32 -28 32 -40 -1 -10 -26 -2 -46 25 -66 6 -4 -1 -8 -15
-8 -17 0 -21 -3 -12 -9 10 -6 10 -10 -3 -21 -11 -9 -15 -9 -15 -1 0 7 -4 9
-10 6 -5 -3 -10 1 -10 10 0 9 -7 26 -15 39 -17 25 -11 56 11 56 10 0 14 12 14
40 l0 40 40 0 c33 0 40 3 40 20 0 13 7 20 20 20 13 0 20 7 20 20 0 17 -7 20
-51 20 -46 0 -49 1 -35 16 9 8 14 19 11 24 -3 4 2 10 10 14 8 3 15 0 15 -7 0
-8 4 -6 10 3 6 10 10 11 10 3 0 -7 7 -13 15 -13 8 0 15 9 15 20 0 28 25 35 55
16 17 -11 25 -26 25 -46 0 -17 5 -30 10 -30 6 0 10 -9 10 -20 0 -11 5 -20 10
-20 6 0 10 9 10 20 0 13 7 20 20 20 16 0 20 7 20 30 0 23 -4 30 -20 30 -11 0
-20 5 -20 10 0 6 9 10 20 10 11 0 20 5 20 10 0 17 -25 11 -48 -10 -28 -27 -32
-25 -32 10 0 23 4 30 20 30 12 0 20 7 20 18 0 9 13 23 30 30 30 14 41 47 18
54 -7 3 -6 7 5 11 12 4 17 1 17 -11 0 -9 7 -26 15 -36 8 -10 12 -23 9 -27 -3
-5 0 -9 5 -9 6 0 11 -15 11 -32 0 -21 3 -28 8 -20 6 9 16 -1 32 -33 13 -25 23
-52 23 -60 0 -8 4 -15 9 -15 4 0 8 -9 8 -20 0 -11 3 -20 8 -20 4 0 15 -19 24
-43 13 -33 15 -57 9 -112 -8 -70 -8 -70 -10 -17 -1 38 -5 52 -13 49 -12 -3
-15 -119 -8 -254 0 -13 0 -29 -1 -35 0 -7 2 -29 6 -48 5 -19 4 -32 0 -28 -20
19 -50 -79 -33 -107 3 -6 5 -21 3 -35 -1 -14 -3 -35 -4 -46 0 -12 -8 -25 -16
-28 -12 -4 -15 1 -14 27 2 27 -14 77 -25 77 -1 0 -2 -28 0 -63 2 -34 3 -75 4
-92 0 -23 3 -27 10 -15 8 12 10 11 10 -6 0 -11 -4 -24 -10 -30 -5 -5 -12 -39
-16 -75 -3 -35 -10 -80 -15 -99 l-9 -35 5 38 c2 25 0 35 -7 31 -6 -4 -8 -24
-5 -49 6 -41 5 -42 -21 -41 -24 1 -27 -3 -30 -33 -2 -22 3 -43 16 -61 17 -23
18 -28 6 -45 -8 -10 -12 -27 -8 -37 3 -10 1 -18 -4 -18 -5 0 -9 -19 -9 -43 0
-24 -4 -50 -9 -58 -4 -8 -7 -25 -6 -39 1 -22 1 -22 -7 -5 -6 16 -9 12 -14 -22
-5 -29 -13 -42 -27 -46 -26 -7 -26 -27 0 -34 11 -3 20 -11 20 -19 0 -8 -6 -11
-15 -8 -8 4 -15 1 -15 -5 0 -6 5 -11 10 -11 6 0 10 -7 10 -15 0 -9 -6 -12 -15
-9 -13 5 -15 -7 -16 -72 0 -47 -3 -71 -8 -60 -6 15 -10 16 -16 7 -4 -8 -2 -17
6 -21 10 -7 10 -14 2 -32 -10 -20 -12 -20 -12 -4 -1 14 -8 9 -27 -19 -22 -33
-25 -45 -19 -87 4 -30 11 -46 18 -41 7 4 8 0 3 -13 -8 -19 -17 -65 -19 -96 -1
-10 -15 -22 -32 -29 -16 -6 -38 -15 -47 -20 -23 -12 -41 -12 -33 1 3 6 2 10
-4 10 -5 0 -13 -4 -16 -10 -3 -5 -15 -10 -26 -10 -11 0 -17 4 -14 10 4 6 -6
10 -24 10 -23 0 -29 -4 -25 -15 6 -15 47 -21 108 -17 16 2 33 -3 38 -10 6 -9
8 -7 6 7 -2 11 3 20 10 21 6 1 18 2 25 3 28 3 40 22 53 82 7 35 20 91 28 124
8 33 26 111 40 173 14 61 37 160 51 220 70 310 73 328 53 334 -7 3 -8 10 -4
17 7 10 10 10 16 1 4 -7 9 -1 13 17 3 15 20 95 37 177 32 155 43 184 65 166
10 -8 20 26 44 152 18 89 33 163 35 165 1 2 9 -8 16 -22 7 -14 17 -25 21 -25
19 0 19 25 -2 83 -15 42 -23 94 -26 162 -5 102 1 138 67 449 15 72 21 135 21
234 0 144 9 181 50 202 47 26 48 11 7 -197 -142 -721 -135 -653 -72 -723 56
-62 86 -67 256 -41 192 30 438 70 463 76 56 12 140 115 147 181 3 28 2 29 -52
35 -171 19 -264 86 -199 145 33 30 210 27 304 -5 81 -28 135 -74 135 -115 0
-43 -27 -84 -69 -105 -21 -11 -45 -30 -54 -43 -24 -35 -110 -122 -242 -243
-66 -60 -123 -114 -126 -120 -4 -5 -9 -59 -13 -120 -6 -113 -32 -395 -42 -452
l-5 -33 -77 0 c-42 0 -106 7 -141 15 -48 12 -67 13 -75 4 -8 -8 -6 -10 9 -5
16 5 21 1 22 -16 1 -13 7 -24 13 -26 5 -2 10 -12 10 -23 0 -14 7 -19 30 -19
17 0 30 -4 30 -10 0 -5 9 -10 20 -10 11 0 20 3 20 8 0 10 75 42 99 42 19 0 36
-31 51 -90 5 -18 9 -5 14 45 4 39 11 88 16 110 5 22 19 157 31 300 l21 260 71
64 c40 35 127 119 194 187 67 67 132 125 145 129 18 5 20 4 8 -4 -12 -9 -11
-11 8 -11 12 0 22 -5 22 -11 0 -5 -4 -7 -10 -4 -5 3 -10 -3 -10 -14 0 -12 5
-21 10 -21 6 0 10 -48 10 -125 l0 -125 -40 0 -40 0 0 -160 0 -160 -40 0 -40 0
0 -80 0 -80 -40 0 -40 0 0 -80 0 -80 -40 0 -40 0 0 -80 0 -80 -40 0 -40 0 0
-40 0 -40 -40 0 -40 0 0 -41 0 -41 -44 3 c-24 2 -42 1 -39 -3 2 -5 1 -13 -3
-19 -5 -8 -12 -4 -23 10 -11 14 -23 20 -33 16 -20 -8 -31 -32 -17 -40 5 -4 8
-1 7 7 -2 7 6 13 17 13 11 0 19 -5 18 -12 -2 -7 6 -10 17 -8 18 4 20 -2 20
-61 l0 -64 -58 0 c-33 0 -64 5 -71 13 -11 10 -13 9 -7 -1 5 -7 1 -12 -9 -12
-11 0 -15 5 -11 15 3 8 1 15 -4 15 -6 0 -10 -4 -10 -10 0 -5 -11 -10 -25 -10
-16 0 -25 -6 -25 -15 0 -8 -7 -15 -15 -15 -8 0 -15 5 -15 10 0 6 -16 10 -35
10 -34 0 -35 -1 -35 -38 0 -47 -20 -78 -44 -69 -12 5 -15 13 -11 28 6 18 4 19
-13 10 -11 -6 -22 -18 -26 -26 -4 -13 -1 -15 14 -10 35 11 37 -23 4 -51 -30
-24 -64 -32 -64 -14 0 17 -38 11 -45 -7 -7 -19 35 -64 58 -62 9 0 9 2 0 6 -23
9 -14 31 11 29 24 -1 30 -15 11 -28 -6 -4 -2 -8 8 -8 13 0 17 -9 17 -40 l0
-40 -80 0 -80 0 0 -40 0 -40 -44 0 c-40 0 -44 2 -38 22 3 14 1 19 -6 14 -6 -3
-13 -2 -17 4 -3 6 1 13 9 16 9 3 13 10 10 15 -3 5 1 6 9 3 8 -3 22 2 31 11 9
9 23 14 32 11 8 -3 12 -2 9 4 -3 6 -4 10 -1 10 2 0 12 3 22 7 13 5 15 3 9 -8
-4 -8 -5 -11 0 -7 4 4 14 3 21 -2 9 -8 12 -6 10 7 0 10 4 17 10 16 7 -1 9 8 6
24 -4 23 -8 25 -44 19 -26 -4 -37 -3 -33 4 4 6 -9 10 -34 10 -23 0 -41 -4 -41
-10 0 -5 -10 -10 -21 -10 -20 0 -21 -4 -17 -50 4 -37 1 -50 -9 -55 -26 -9 -43
-5 -43 11 0 23 -62 15 -66 -8 -2 -17 17 -24 54 -19 6 1 12 -3 12 -9 0 -8 6 -8
21 0 25 14 41 9 45 -13 3 -21 -14 -23 -22 -2 -4 8 -10 12 -15 9 -5 -3 -7 -9
-4 -14 3 -4 -4 -6 -15 -3 -11 3 -20 10 -20 15 0 7 -4 7 -12 0 -7 -5 -28 -13
-47 -17 -37 -8 -68 -31 -57 -43 4 -3 10 -1 14 5 11 17 89 43 107 37 10 -4 15
-20 15 -45 0 -39 0 -39 -40 -39 -36 0 -40 3 -40 25 0 29 -20 34 -27 6 -5 -21
-33 -37 -33 -19 0 6 -7 16 -16 22 -13 10 -13 18 -2 59 6 26 17 47 24 47 7 0
15 11 18 25 3 13 16 33 27 44 21 20 23 51 4 94 -6 14 -2 17 19 17 24 0 26 4
26 40 0 33 3 40 20 40 13 0 20 7 20 20 0 17 7 20 40 20 33 0 40 3 40 20 0 13
-7 20 -20 20 -19 0 -20 7 -20 135 0 126 -1 135 -19 135 -11 0 -22 -6 -24 -12
-3 -7 -6 1 -6 19 -1 17 3 34 8 37 5 3 11 20 14 38 3 18 9 45 12 61 5 17 3 27
-4 27 -6 0 -11 -9 -11 -21 0 -11 -7 -44 -15 -72 -8 -29 -17 -68 -19 -87 -3
-19 -9 -53 -15 -75 -13 -51 -13 -58 -1 -50 6 4 10 -7 10 -24 0 -17 0 -33 0
-36 0 -3 -3 -6 -7 -7 -5 -1 -10 11 -13 28 -5 24 -8 18 -19 -39 -7 -37 -11 -71
-7 -74 3 -4 6 1 6 10 0 9 4 18 9 21 5 4 8 -2 6 -11 -2 -10 -4 -24 -4 -32 -1
-7 -7 -11 -16 -7 -8 3 -15 0 -15 -7 0 -7 -3 -23 -6 -37 -4 -18 -3 -21 4 -11
15 21 24 -4 11 -33 -15 -32 -29 -34 -22 -3 3 12 3 20 0 17 -3 -3 -12 -37 -20
-75 -28 -132 -28 -132 -18 -110 5 11 10 15 10 8 2 -20 -11 -43 -20 -38 -4 3
-11 -11 -14 -32 -4 -21 -10 -50 -15 -65 -7 -20 -5 -27 8 -30 14 -4 16 -15 14
-56 l-4 -52 -101 0 c-56 0 -113 3 -126 7 -23 6 -23 7 -5 14 27 11 46 11 40 0
-4 -5 4 -7 16 -3 l22 5 -24 9 c-28 10 -93 -8 -84 -24 5 -7 2 -8 -7 -2 -7 4
-30 7 -49 7 l-35 -2 39 10 c61 15 56 19 -18 18 -61 -1 -65 -3 -44 -15 13 -8
31 -17 41 -20 12 -5 17 -17 17 -45 l0 -39 -480 0 -480 0 0 40 c0 43 -1 42 70
42 33 -1 32 0 -10 9 -25 5 -56 7 -70 4 -17 -4 -21 -3 -12 3 11 7 8 11 -11 16
-14 3 -33 3 -41 0 -18 -7 -22 -24 -6 -24 6 0 10 5 10 10 0 6 7 10 15 10 8 0
15 -7 15 -15 0 -12 -18 -15 -100 -15 l-100 0 0 30 c0 23 5 30 19 30 10 0 22 8
25 17 4 10 10 13 14 8 4 -6 21 -11 37 -13 57 -5 63 -6 58 -16 -4 -5 11 -6 37
-2 32 5 45 3 54 -9 12 -17 106 -33 106 -18 0 5 -15 10 -32 11 -21 1 -41 12
-55 27 -25 28 -35 30 -63 13 -15 -10 -22 -10 -32 0 -6 6 -32 12 -56 12 -32 0
-43 4 -39 13 6 15 -47 42 -68 33 -7 -2 -13 -14 -12 -26 1 -13 6 -19 15 -15 7
2 11 1 7 -4 -3 -5 1 -12 7 -14 9 -4 8 -6 -2 -6 -8 0 -24 6 -34 14 -11 8 -16
15 -10 15 5 0 2 5 -8 10 -18 11 -48 3 -48 -12 0 -7 5 -6 14 1 10 9 15 8 20 -4
4 -12 -5 -15 -54 -15 l-60 0 0 46 c0 27 -4 43 -10 39 -5 -3 -10 -1 -10 4 0 6
-5 11 -11 11 -5 0 -8 -4 -5 -8 2 -4 -4 -8 -14 -8 -10 0 -16 4 -14 8 3 4 0 8
-5 8 -6 0 -11 -4 -11 -10 0 -6 -33 -10 -80 -10 l-80 0 0 40 0 40 -41 0 -40 0
3 43 c3 40 4 42 33 39 17 -2 34 -8 39 -13 6 -5 15 -9 20 -9 6 0 2 6 -9 14 -25
17 -74 26 -81 15 -3 -5 -23 -9 -45 -9 l-39 0 0 41 c0 39 1 41 26 35 17 -5 23
-3 19 4 -3 5 -13 10 -21 10 -8 0 -14 6 -15 13 0 9 -2 9 -6 -1 -2 -6 -10 -9
-16 -5 -7 4 -19 8 -27 8 -8 0 -15 5 -15 10 0 6 -4 15 -8 21 -4 7 0 14 8 18 10
3 15 19 15 47 l0 41 -45 -4 c-38 -3 -43 -1 -29 9 9 7 21 10 27 6 6 -3 7 -1 3
5 -3 6 3 14 15 17 11 4 18 9 15 12 -3 3 -28 -9 -56 -27 -47 -30 -60 -42 -42
-39 4 1 13 1 21 0 17 -1 5 -16 -12 -16 -7 0 -12 -9 -12 -20 0 -15 7 -20 28
-21 32 -1 32 -1 10 17 -15 12 -16 12 -8 -1 8 -13 7 -13 -8 -1 -21 17 -21 18 1
18 27 1 61 -36 56 -61 -2 -15 4 -26 23 -38 26 -16 25 -16 -40 -17 l-67 -1 0
40 c0 40 0 40 -40 40 l-40 0 0 40 0 40 -40 0 -40 0 0 40 0 40 -41 0 -42 0 6
80 5 80 -44 0 -44 0 0 40 c0 22 5 40 10 40 6 0 10 8 10 17 0 14 4 12 17 -7 21
-30 40 -50 47 -50 3 0 6 18 6 39 0 44 -18 65 -27 32 -7 -27 -16 -27 -28 1 -15
33 -35 34 -32 1 2 -26 -1 -28 -40 -31 l-43 -3 0 40 0 41 -40 0 -40 0 0 80 0
80 -40 0 -40 0 0 79 c0 44 4 81 9 83 4 2 11 14 15 28 7 23 6 24 -8 6 -14 -17
-15 -16 -14 14 1 20 4 27 9 18 6 -9 9 -9 9 -1 0 6 6 13 13 16 6 2 4 3 -5 2
-10 -2 -18 2 -19 8 0 8 -2 8 -6 0 -2 -8 -22 -13 -44 -13 l-39 0 0 78 1 77 21
-28 c15 -21 23 -25 29 -16 6 10 11 5 18 -14 6 -16 11 -34 11 -42 0 -8 4 -16 9
-20 6 -3 6 6 1 25 -5 17 -6 38 -3 46 5 13 -12 19 -44 15 -7 -1 -13 3 -13 9 0
6 4 9 9 6 5 -3 14 1 21 9 7 8 16 12 21 9 5 -3 6 2 3 10 -3 9 -10 16 -16 16 -5
0 -6 5 -3 10 3 6 17 10 31 10 17 0 24 5 24 20 0 17 7 20 40 20 l40 0 0 40 0
40 -40 0 c-33 0 -40 3 -40 20 0 13 -7 20 -20 20 -13 0 -20 -7 -20 -19 0 -11
-8 -21 -17 -23 -16 -3 -15 -6 5 -26 13 -13 22 -34 22 -52 0 -35 -2 -36 -37
-12 -17 10 -24 12 -19 4 12 -20 -2 -82 -18 -76 -9 3 -12 21 -10 52 1 26 0 62
-3 80 -5 30 -8 32 -44 32 l-39 0 0 440 0 440 40 0 40 0 0 160 0 160 40 0 40 0
0 120 0 120 40 0 40 0 0 80 0 80 40 0 40 0 0 40 0 40 40 0 40 0 0 40 0 40 40
0 40 0 0 40 0 40 40 0 40 0 0 80 0 80 40 0 40 0 0 40 0 40 40 0 40 0 0 40 0
40 80 0 80 0 0 40 0 40 40 0 40 0 0 40 0 40 40 0 c36 0 40 -2 40 -25 0 -14 5
-25 11 -25 5 0 8 4 5 8 -3 5 2 9 10 9 10 0 14 -7 11 -18 -5 -17 1 -48 18 -104
4 -15 -2 -24 -24 -37 -32 -18 -53 -69 -41 -102 4 -11 -1 -34 -12 -54 -34 -68
-18 -161 36 -211 16 -16 26 -35 26 -53 0 -37 24 -84 50 -98 14 -8 20 -21 20
-45 0 -40 46 -99 84 -109 17 -4 27 -16 31 -37 4 -17 16 -40 27 -51 19 -19 19
-20 -14 -184 l-33 -165 -100 -38 c-126 -48 -265 -111 -265 -121 0 -22 41 -16
112 16 45 20 126 53 181 74 66 25 103 45 107 57 4 10 26 115 49 233 l43 216
-57 97 c-32 54 -59 112 -60 129 -2 30 -5 32 -59 43 -95 19 -156 82 -156 162 0
63 23 101 75 124 40 18 47 18 79 5 48 -20 65 -50 76 -142 13 -98 17 -113 43
-141 24 -27 44 -29 75 -7 20 14 23 24 21 68 -2 36 3 60 15 79 22 33 37 95 29
125 -4 19 -1 22 26 22 22 0 40 9 57 27 23 25 27 26 57 14 59 -24 101 -30 141
-21 63 14 83 33 133 129 1 1 17 -8 35 -22 65 -48 139 -59 206 -31 l37 15 32
-38 c18 -21 44 -65 59 -99 17 -40 35 -66 55 -78 49 -29 83 -100 84 -173 0 -35
1 -63 3 -63 15 0 45 26 58 52 16 31 15 78 -2 165 -5 25 1 43 30 90 19 32 39
73 42 91 9 44 -19 114 -60 150 -27 23 -31 33 -24 47 6 9 8 45 6 80 -6 102 -70
168 -174 181 -41 5 -53 10 -58 27 -7 26 0 37 25 37 12 0 19 7 19 20 0 19 7 20
200 20 l200 0 0 -40z m1735 -1180 c120 -58 233 -148 253 -202 13 -33 12 -41
-4 -74 -25 -47 -67 -74 -92 -56 -9 7 -41 24 -70 37 -34 16 -56 34 -62 50 -6
17 -26 33 -57 46 -67 29 -163 87 -200 122 -40 37 -42 66 -7 100 48 48 104 43
239 -23z m-61 -295 c162 -28 254 -96 264 -193 4 -41 0 -52 -23 -80 l-27 -33
-35 36 c-71 73 -175 106 -341 107 -123 1 -132 5 -132 63 0 53 36 85 117 104
56 13 81 13 177 -4z m-1498 -74 c-3 -4 5 -13 19 -19 31 -14 53 -52 30 -52 -8
0 -15 5 -15 11 0 5 -10 9 -21 7 -18 -2 -22 3 -24 30 -1 17 2 32 7 32 5 0 7 -4
4 -9z m1501 -145 c117 -31 195 -103 197 -180 1 -47 -24 -92 -80 -139 l-34 -29
-27 20 c-16 11 -45 25 -66 33 -32 11 -37 17 -35 39 2 19 8 24 23 21 39 -8 58
-6 62 6 2 6 -5 16 -15 22 -29 16 -186 41 -254 41 -75 0 -125 20 -134 55 -14
55 34 111 107 123 59 10 195 4 256 -12z m-1532 -66 c3 -5 -1 -10 -9 -10 -9 0
-16 5 -16 10 0 6 4 10 9 10 6 0 13 -4 16 -10z m238 -65 c-6 -17 -33 -8 -33 10
0 8 8 11 19 8 11 -3 17 -11 14 -18z m-123 -5 c45 -45 15 -95 -89 -149 -93 -48
-189 -119 -230 -168 l-30 -36 -43 17 c-23 10 -66 18 -95 18 -29 0 -53 4 -53 8
0 16 116 133 183 183 62 47 190 119 247 140 36 13 90 7 110 -13z m-290 -17 c0
-1 -8 -7 -18 -12 -14 -7 -19 -6 -19 4 0 7 9 13 19 12 10 -1 18 -2 18 -4z m444
-19 c3 -8 2 -12 -4 -9 -10 6 -14 -7 -11 -32 3 -18 -38 -16 -45 2 -4 8 -10 12
-15 9 -5 -3 -9 1 -9 9 0 9 9 13 25 12 13 -2 29 3 36 11 14 18 16 17 23 -2z
m-94 -84 c0 -5 -4 -10 -10 -10 -5 0 -10 5 -10 10 0 6 5 10 10 10 6 0 10 -4 10
-10z m-532 -34 c-7 -8 -15 -12 -17 -11 -5 6 10 25 20 25 5 0 4 -6 -3 -14z
m483 -9 c-10 -9 -11 -8 -5 6 3 10 9 15 12 12 3 -3 0 -11 -7 -18z m-141 -77
c-8 -5 -19 -10 -25 -10 -5 0 -3 5 5 10 8 5 20 10 25 10 6 0 3 -5 -5 -10z m-48
-27 c-6 -2 -9 -10 -6 -15 4 -7 2 -8 -5 -4 -13 9 -5 26 12 25 9 0 8 -2 -1 -6z
m-43 -35 c-5 -44 2 -68 21 -68 15 0 20 -7 20 -29 0 -24 -5 -29 -30 -33 -20 -3
-30 0 -30 9 0 7 -10 13 -22 14 -13 0 -17 3 -10 6 14 6 16 33 2 33 -17 0 -11
19 17 50 29 33 35 36 32 18z m-454 -58 c-3 -5 -11 -10 -16 -10 -6 0 -7 5 -4
10 3 6 11 10 16 10 6 0 7 -4 4 -10z m295 -25 c122 -62 178 -223 115 -330 -23
-41 -74 -75 -109 -75 -20 0 -20 -1 0 68 39 134 -33 287 -156 333 -55 21 -56
22 -25 30 46 12 123 0 175 -26z m-443 -37 c-3 -8 -6 -5 -6 6 -1 11 2 17 5 13
3 -3 4 -12 1 -19z m289 -7 c109 -50 165 -197 115 -306 -27 -60 -46 -75 -96
-75 l-44 0 1 66 c0 57 -5 76 -37 140 -38 74 -110 154 -140 154 -8 0 -15 4 -15
8 0 34 151 43 216 13z m344 -71 c0 -11 -4 -20 -10 -20 -5 0 -10 9 -10 20 0 11
5 20 10 20 6 0 10 -9 10 -20z m205 -10 c-27 -12 -43 -12 -25 0 8 5 22 9 30 9
10 0 8 -3 -5 -9z m-171 -91 c-21 -24 -34 -24 -34 -1 0 15 2 15 11 2 8 -12 10
-12 8 5 -2 34 0 38 16 25 14 -12 14 -15 -1 -31z m490 -68 c3 -5 -1 -14 -8 -20
-12 -10 -13 -8 -9 8 6 23 9 25 17 12z m-7 -63 c-3 -8 -6 -5 -6 6 -1 11 2 17 5
13 3 -3 4 -12 1 -19z m-272 -27 c3 -5 1 -12 -5 -16 -5 -3 -10 1 -10 9 0 18 6
21 15 7z m-40 -59 c-8 -8 -25 10 -19 20 4 6 9 5 15 -3 4 -7 6 -15 4 -17z m-25
-22 c0 -5 -5 -10 -11 -10 -5 0 -7 5 -4 10 3 6 8 10 11 10 2 0 4 -4 4 -10z
m-55 -120 c-4 -6 -12 -9 -18 -7 -6 2 -20 -6 -30 -17 -19 -21 -19 -21 -4 4 9
15 22 24 32 22 14 -3 16 1 11 15 -6 14 -4 15 5 6 6 -6 8 -16 4 -23z m-1050
-57 c-4 -62 -4 -61 -16 -40 -5 9 -7 23 -2 30 4 6 8 17 9 22 0 6 2 16 2 23 1 6
4 12 6 12 2 0 2 -21 1 -47z m1009 -44 c17 -1 18 -2 3 -6 -10 -2 -16 -12 -15
-20 2 -9 -3 -18 -9 -20 -8 -3 -13 5 -13 21 0 23 -2 25 -25 16 -20 -8 -23 -7
-18 8 3 9 11 23 17 31 8 11 13 9 24 -8 8 -11 24 -22 36 -22z m-94 -26 c0 -5
-5 -15 -10 -23 -8 -12 -10 -11 -10 8 0 12 5 22 10 22 6 0 10 -3 10 -7z m-17
-65 c-2 -5 -14 -8 -27 -8 -12 0 -27 -5 -34 -12 -6 -6 -15 -9 -19 -5 -3 4 8 23
27 42 33 34 33 34 45 12 7 -12 10 -25 8 -29z m-208 -128 c-3 -5 -1 -10 4 -10
6 0 11 -11 11 -25 0 -20 -5 -25 -24 -25 -13 0 -29 6 -35 14 -10 12 -8 19 8 35
21 21 47 29 36 11z m-115 -74 c0 -2 -7 -7 -16 -10 -8 -3 -12 -2 -9 4 6 10 25
14 25 6z m1324 -73 c4 -5 24 -13 44 -20 36 -11 36 -11 -19 -8 -69 5 -96 14
-77 26 16 11 42 11 52 2z m196 -7 c0 -21 -15 -28 -46 -20 l-27 7 29 13 c39 17
44 17 44 0z m-1600 -10 c0 -2 -8 -10 -17 -17 -16 -13 -17 -12 -4 4 13 16 21
21 21 13z m-127 -176 c-3 -12 -8 -19 -11 -16 -5 6 5 36 12 36 2 0 2 -9 -1 -20z
m-24 -63 c-14 -31 -24 -34 -33 -11 -4 10 -2 13 6 8 7 -5 9 -2 5 8 -7 18 13 42
25 30 5 -5 4 -21 -3 -35z m11 -57 c0 -5 -4 -10 -9 -10 -6 0 -13 5 -16 10 -3 6
1 10 9 10 9 0 16 -4 16 -10z m-68 -31 c5 -3 -1 -14 -13 -25 -14 -12 -19 -13
-14 -4 4 8 -2 5 -14 -7 -12 -13 -25 -23 -28 -23 -4 0 -2 5 5 12 18 18 14 32
-5 17 -15 -13 -15 -12 -2 9 14 23 36 32 23 10 -4 -8 -3 -10 2 -5 5 5 9 12 9
15 0 4 4 14 9 22 9 12 10 12 14 0 3 -8 9 -18 14 -21z m-82 -53 c0 -2 -8 -10
-17 -17 -16 -13 -17 -12 -4 4 13 16 21 21 21 13z m-32 -67 c-3 -8 -7 -3 -11
10 -4 17 -3 21 5 13 5 -5 8 -16 6 -23z m1722 -7 c0 -5 -11 -19 -25 -32 -14
-13 -25 -20 -25 -16 0 4 -5 4 -11 0 -8 -4 -8 -9 0 -17 8 -8 18 -4 36 13 l25
23 0 -61 0 -62 -69 0 c-39 0 -73 5 -76 11 -4 6 -13 8 -21 5 -21 -8 -12 17 11
30 11 6 19 16 17 23 -1 7 2 10 8 6 5 -3 10 -1 10 6 0 7 3 10 6 6 8 -8 33 16
27 26 -2 4 -1 7 4 6 25 -4 41 3 46 21 5 19 37 29 37 12z m-102 -40 c2 -7 -2
-10 -12 -6 -9 3 -16 11 -16 16 0 13 23 5 28 -10z m-1658 -22 c0 -5 -4 -10 -10
-10 -5 0 -10 5 -10 10 0 6 5 10 10 10 6 0 10 -4 10 -10z m-42 -35 c-3 -3 -9 2
-12 12 -6 14 -5 15 5 6 7 -7 10 -15 7 -18z m-35 -12 c-7 -3 -13 -10 -13 -16 0
-10 -67 -77 -77 -77 -2 0 17 24 44 54 26 30 50 52 53 49 3 -3 -1 -8 -7 -10z
m1674 -40 c4 3 6 -15 4 -39 -3 -44 -3 -44 -41 -44 -54 0 -63 44 -14 70 13 7
20 18 17 24 -4 6 1 5 10 -2 9 -8 20 -12 24 -9z m-497 -69 c0 -8 -4 -14 -10
-14 -5 0 -10 9 -10 21 0 11 5 17 10 14 6 -3 10 -13 10 -21z m-100 -35 c0 -11
-4 -17 -10 -14 -5 3 -10 13 -10 21 0 8 5 14 10 14 6 0 10 -9 10 -21z m413 -6
c-7 -2 -19 -2 -25 0 -7 3 -2 5 12 5 14 0 19 -2 13 -5z"/>
<path d="M3651 4474 c0 -11 3 -14 6 -6 3 7 2 16 -1 19 -3 4 -6 -2 -5 -13z"/>
<path d="M3621 4417 c-8 -10 -7 -14 2 -14 8 0 14 6 14 14 0 7 -1 13 -2 13 -2
0 -8 -6 -14 -13z"/>
<path d="M2223 3930 c-75 -37 -125 -93 -153 -168 -26 -68 -24 -145 3 -150 14
-3 17 4 17 50 0 66 33 141 85 191 31 31 77 54 143 73 19 6 9 28 -14 32 -11 1
-47 -11 -81 -28z"/>
<path d="M1276 3861 c-6 -9 53 -67 99 -97 20 -13 29 -14 38 -5 13 13 14 11
-61 70 -56 42 -67 47 -76 32z"/>
<path d="M2434 3752 c-1 -83 -5 -108 -31 -174 l-31 -77 28 14 c18 9 34 31 45
60 12 30 24 45 35 45 52 0 36 153 -22 207 l-23 22 -1 -97z"/>
<path d="M2248 3701 c-20 -16 -21 -22 -10 -45 13 -29 42 -34 66 -10 19 18 19
20 6 43 -14 28 -37 32 -62 12z"/>
<path d="M1884 3696 c-15 -40 21 -80 54 -60 37 24 21 74 -25 74 -13 0 -26 -6
-29 -14z"/>
<path d="M1845 3549 c-10 -15 1 -23 20 -15 9 3 13 10 10 16 -8 13 -22 13 -30
-1z"/>
<path d="M1870 3500 c-13 -9 -11 -14 13 -35 15 -13 46 -29 70 -36 44 -12 134
-6 150 10 20 20 -6 30 -78 29 -63 -1 -80 2 -105 20 -34 25 -31 25 -50 12z"/>
<path d="M2370 3473 c-8 -3 -42 -31 -75 -61 -121 -112 -288 -161 -435 -128
-104 23 -105 23 -105 6 0 -9 17 -20 43 -28 50 -17 50 -14 17 -168 -13 -65 -22
-121 -19 -126 13 -21 29 3 43 68 l16 69 65 23 c77 28 218 58 312 68 53 5 67
10 71 25 6 23 2 23 -113 8 -90 -11 -270 -53 -303 -71 -18 -9 -19 -8 -13 22 3
18 6 39 6 46 0 11 9 13 38 9 49 -8 184 17 251 45 63 28 150 93 191 145 25 31
38 58 28 54 -2 0 -10 -3 -18 -6z"/>
<path d="M2365 3241 c-14 -7 16 -10 95 -11 91 -1 123 -6 155 -21 l40 -19 -52
6 c-35 4 -53 2 -53 -5 0 -6 11 -11 24 -11 13 0 29 -7 36 -15 7 -8 16 -15 21
-15 5 0 9 7 9 15 0 20 29 19 52 -2 15 -13 23 -14 43 -5 14 6 25 8 25 4 0 -9
62 -34 68 -27 8 8 -126 69 -193 87 -80 21 -240 33 -270 19z"/>
<path d="M2340 3199 c-7 -11 -9 -23 -6 -26 3 -3 -1 -12 -9 -20 -8 -8 -15 -20
-15 -26 1 -7 6 -5 13 4 7 9 18 14 25 11 11 -3 12 0 3 17 -7 12 -8 21 -2 21 5
0 9 9 8 20 -2 25 -4 25 -17 -1z"/>
<path d="M2386 3155 c-3 -8 -1 -15 4 -15 6 0 10 7 10 15 0 8 -2 15 -4 15 -2 0
-6 -7 -10 -15z"/>
<path d="M2283 3077 c-6 -13 -8 -36 -5 -52 4 -25 2 -27 -16 -23 -13 4 -26 0
-34 -10 -8 -10 -8 -13 -1 -9 7 5 9 0 6 -14 -5 -19 -3 -20 18 -14 13 4 32 17
41 27 9 11 19 19 23 18 4 -1 10 2 13 6 4 4 1 4 -7 -1 -14 -8 -13 9 5 73 9 31
-29 30 -43 -1z m37 9 c0 -2 -7 -7 -16 -10 -8 -3 -12 -2 -9 4 6 10 25 14 25 6z"/>
<path d="M2156 2911 c-15 -16 -28 -33 -28 -38 0 -4 -4 -7 -9 -6 -4 2 -5 -5 -2
-15 6 -14 4 -15 -9 -4 -13 10 -18 9 -29 -5 -9 -11 -10 -14 -1 -9 6 4 12 4 12
-1 0 -15 -15 -28 -35 -30 -11 -1 -14 0 -7 3 6 3 12 10 12 15 0 5 -8 4 -18 -2
-10 -6 -18 -21 -17 -33 1 -18 9 -21 48 -24 l47 -3 0 40 c0 28 7 48 20 61 11
11 17 20 13 20 -3 0 4 11 17 25 13 14 21 27 18 30 -2 3 -17 -8 -32 -24z"/>
<path d="M2173 2825 c-15 -17 -17 -65 -3 -65 6 0 10 -9 10 -20 0 -11 5 -20 10
-20 6 0 10 27 10 60 0 61 -5 70 -27 45z"/>
<path d="M2240 2790 c0 -23 4 -30 20 -30 16 0 20 7 20 30 0 23 -4 30 -20 30
-16 0 -20 -7 -20 -30z"/>
<path d="M900 2776 c-122 -44 -225 -94 -222 -106 2 -8 -3 -10 -13 -6 -34 13
-205 -103 -306 -206 -60 -62 -142 -207 -141 -249 2 -35 19 -127 21 -106 1 10
9 17 21 17 13 0 20 7 20 20 0 14 -7 20 -22 20 -20 0 -23 6 -25 43 -1 23 1 36
4 29 9 -23 41 41 36 71 -6 32 0 34 25 7 l19 -21 6 21 c3 11 -1 23 -8 28 -20
10 -19 22 2 37 16 12 19 11 25 -6 9 -23 26 -25 34 -4 7 17 34 21 34 5 0 -5 16
-10 35 -10 34 0 35 1 35 40 0 33 3 40 20 40 16 0 20 7 20 35 0 28 -4 35 -19
35 -11 0 -23 5 -26 10 -4 6 -12 7 -18 4 -7 -4 -8 -3 -4 2 9 9 14 11 48 13 15
1 19 6 14 20 -3 12 0 21 10 25 9 3 15 0 15 -9 0 -10 10 -15 31 -15 28 0 31 3
25 23 -4 17 1 30 19 45 30 26 36 27 29 7 -4 -8 -2 -21 4 -28 5 -6 12 -21 15
-32 5 -19 5 -19 12 3 5 16 15 22 36 22 27 0 29 -3 29 -40 0 -22 5 -40 10 -40
6 0 10 31 10 73 0 43 5 78 12 85 9 9 9 12 0 12 -7 0 -12 3 -12 8 0 10 60 36
67 28 4 -3 -1 -6 -11 -6 -21 0 -18 -31 4 -37 12 -4 12 -3 2 5 -11 7 -9 11 8
15 14 3 19 10 15 17 -7 11 10 29 28 30 4 0 7 -16 7 -35 0 -28 4 -35 20 -35 13
0 20 7 20 20 0 13 7 20 20 20 11 0 20 7 20 15 0 10 10 15 28 15 48 0 55 15 17
33 -20 9 -37 17 -38 17 -1 -1 -31 -11 -67 -24z m-460 -282 c0 -8 -4 -12 -10
-9 -5 3 -10 10 -10 16 0 5 5 9 10 9 6 0 10 -7 10 -16z m-42 -62 c2 -7 -3 -12
-12 -12 -9 0 -16 7 -16 16 0 17 22 14 28 -4z"/>
<path d="M1993 2789 c-6 -6 -36 -23 -67 -39 -32 -15 -53 -31 -47 -34 19 -12 0
-34 -35 -41 -48 -9 -66 5 -29 22 l30 14 -30 -6 c-33 -6 -58 -11 -120 -25 -22
-5 -80 -10 -130 -11 -49 -1 -75 -4 -57 -6 17 -2 32 -9 32 -15 0 -6 -12 -8 -31
-4 -17 3 -36 6 -41 6 -5 0 -6 5 -3 10 4 6 -12 10 -41 10 -44 0 -46 -1 -28 -15
22 -17 38 -20 29 -5 -3 6 -2 10 4 10 17 0 23 -20 7 -26 -13 -5 -13 -8 -1 -20
16 -16 42 -19 47 -4 2 5 20 7 43 3 31 -5 35 -8 20 -14 -16 -6 -13 -8 13 -8 24
-1 32 3 33 17 0 10 3 12 6 5 7 -20 43 -16 44 5 0 12 3 10 12 -8 24 -51 67 -70
67 -30 0 13 -7 20 -20 20 -13 0 -20 7 -20 20 0 18 7 20 60 20 53 0 60 -2 60
-20 0 -16 7 -20 30 -20 23 0 30 -4 30 -20 0 -11 5 -20 10 -20 6 0 10 9 10 20
0 17 7 20 40 20 l40 0 0 40 c0 22 -4 40 -10 40 -5 0 -10 -4 -10 -10 0 -5 -5
-10 -10 -10 -6 0 -9 17 -8 39 3 33 6 40 23 38 12 -1 19 3 17 12 -2 9 4 12 18
8 15 -4 20 -2 17 8 -3 7 0 18 6 24 6 6 9 11 6 11 -3 0 -10 -5 -16 -11z m-334
-133 c-12 -10 -79 -16 -79 -6 0 5 19 10 42 10 23 0 39 -2 37 -4z"/>
<path d="M1045 2751 c-3 -6 16 -13 42 -17 41 -7 44 -9 23 -14 -49 -13 -70 -22
-70 -31 0 -11 98 -10 125 1 l20 9 -20 1 c-19 1 -19 2 -1 9 15 6 10 10 -25 21
-24 8 -47 15 -51 15 -3 0 -10 3 -14 8 -10 10 -22 9 -29 -2z"/>
<path d="M1195 2659 c2 -29 8 -55 14 -57 6 -2 11 -12 11 -23 0 -10 5 -19 10
-19 6 0 10 9 10 20 0 17 7 20 40 20 33 0 40 3 40 20 0 13 7 20 19 20 10 0 21
9 24 19 4 16 -2 20 -39 26 -24 3 -54 3 -67 0 -17 -5 -19 -4 -7 4 13 10 13 11
0 11 -8 0 -25 3 -36 6 -20 5 -21 3 -19 -47z"/>
<path d="M800 2655 c0 -8 9 -15 20 -15 11 0 20 7 20 15 0 8 -9 15 -20 15 -11
0 -20 -7 -20 -15z"/>
<path d="M1352 2608 c3 -7 15 -15 28 -16 21 -3 22 -2 11 12 -16 19 -44 21 -39
4z"/>
<path d="M800 2580 c0 -13 7 -20 20 -20 13 0 20 7 20 20 0 13 -7 20 -20 20
-13 0 -20 -7 -20 -20z"/>
<path d="M1060 2580 c0 -11 5 -20 10 -20 6 0 10 9 10 20 0 11 -4 20 -10 20 -5
0 -10 -9 -10 -20z"/>
<path d="M2480 2590 c0 -5 5 -10 10 -10 6 0 10 5 10 10 0 6 -4 10 -10 10 -5 0
-10 -4 -10 -10z"/>
<path d="M640 2481 c0 -35 3 -41 21 -41 17 0 20 5 17 37 -2 27 -8 39 -20 41
-15 3 -18 -4 -18 -37z"/>
<path d="M2277 2353 c6 -16 8 -16 23 1 9 12 8 15 -8 13 -12 0 -18 -6 -15 -14z"/>
<path d="M420 2330 c0 -5 14 -10 30 -10 17 0 30 5 30 10 0 6 -13 10 -30 10
-16 0 -30 -4 -30 -10z"/>
<path d="M4501 2228 c2 -31 2 -31 6 -5 3 16 9 25 15 21 7 -4 8 -2 4 4 -14 22
-26 12 -25 -20z"/>
<path d="M420 2160 c0 -38 2 -40 30 -40 27 0 30 3 30 30 0 23 -4 30 -20 30
-11 0 -20 5 -20 10 0 6 -4 10 -10 10 -5 0 -10 -18 -10 -40z"/>
<path d="M182 2140 c0 -14 2 -19 5 -12 2 6 2 18 0 25 -3 6 -5 1 -5 -13z"/>
<path d="M202 2135 c0 -16 2 -22 5 -12 2 9 2 23 0 30 -3 6 -5 -1 -5 -18z"/>
<path d="M212 2070 c0 -14 2 -19 5 -12 2 6 2 18 0 25 -3 6 -5 1 -5 -13z"/>
<path d="M233 2040 c2 -37 17 -59 40 -60 4 0 7 23 7 50 0 46 -2 50 -24 50 -22
0 -24 -4 -23 -40z"/>
<path d="M1903 2008 c3 -8 9 -41 13 -74 7 -52 9 -55 15 -29 14 61 10 94 -13
106 -17 9 -20 9 -15 -3z"/>
<path d="M266 1924 c-4 -9 -4 -19 -1 -22 2 -3 7 3 11 12 4 9 4 19 1 22 -2 3
-7 -3 -11 -12z"/>
<path d="M251 1864 c0 -11 3 -14 6 -6 3 7 2 16 -1 19 -3 4 -6 -2 -5 -13z"/>
<path d="M1202 1848 c2 -20 -1 -40 -5 -44 -4 -4 -7 -23 -6 -43 l1 -36 10 35
c14 50 21 62 45 71 18 6 20 4 17 -14 -4 -21 -4 -21 5 -2 5 11 10 31 10 45 -1
14 -3 19 -6 13 -2 -7 -17 -13 -33 -13 -16 0 -31 6 -34 13 -3 6 -5 -5 -4 -25z"/>
<path d="M1260 1788 c0 -2 -7 -41 -15 -88 -8 -47 -15 -87 -15 -89 0 -2 7 2 15
9 8 7 15 23 15 35 0 13 7 26 16 29 13 5 15 14 9 44 -4 20 -8 43 -8 50 0 9 -17
19 -17 10z"/>
<path d="M1181 1713 c4 -23 -2 -43 -11 -38 -6 4 -9 -10 -7 -34 1 -23 5 -41 8
-41 5 0 29 90 29 111 0 5 -4 9 -10 9 -5 0 -9 -3 -9 -7z"/>
<path d="M3140 1680 c0 -38 2 -40 30 -40 27 0 30 3 30 30 0 23 -4 30 -20 30
-11 0 -20 5 -20 10 0 6 -4 10 -10 10 -5 0 -10 -18 -10 -40z"/>
<path d="M1103 1687 c3 -8 9 -36 13 -63 7 -46 8 -47 15 -19 12 55 10 74 -13
86 -17 9 -20 9 -15 -4z"/>
<path d="M1271 1620 c-7 -17 -10 -88 -5 -104 6 -18 8 -17 21 8 9 18 11 31 5
39 -6 7 -12 23 -15 37 -2 14 -5 23 -6 20z"/>
<path d="M356 1585 c-10 -26 -6 -32 6 -10 12 19 12 19 18 -4 7 -31 30 -40 30
-13 0 11 8 23 18 25 11 3 7 5 -10 6 -14 0 -33 4 -41 7 -8 3 -17 -2 -21 -11z"/>
<path d="M1211 1536 c-7 -37 -10 -71 -6 -74 3 -3 5 1 5 10 0 8 7 28 15 44 10
20 12 39 6 59 -7 27 -9 23 -20 -39z"/>
<path d="M1156 1582 c-2 -4 -1 -14 5 -22 7 -12 9 -10 9 8 0 23 -5 28 -14 14z"/>
<path d="M3350 1566 c0 -21 4 -27 15 -23 8 4 17 1 21 -5 4 -6 3 -8 -3 -5 -6 4
-14 -5 -18 -21 -5 -19 -9 -22 -13 -12 -10 27 -29 -73 -24 -126 3 -35 1 -54 -8
-59 -9 -6 -11 -4 -5 6 6 11 5 12 -6 1 -11 -10 -11 -16 -1 -32 6 -11 12 -26 12
-35 0 -10 6 -8 23 8 23 23 35 81 18 91 -5 3 -7 15 -4 26 4 14 14 20 34 20 16
0 29 5 29 11 0 6 7 8 16 5 25 -10 37 4 20 23 -14 15 -14 18 -1 18 8 0 12 -4 9
-9 -3 -4 2 -8 10 -8 8 0 19 -7 24 -16 5 -9 13 -17 18 -17 4 -1 7 -12 6 -24 -3
-21 1 -23 36 -23 23 0 42 5 44 12 3 9 6 9 12 0 4 -7 2 -12 -3 -12 -6 0 -11 -4
-11 -8 0 -5 28 -9 63 -9 34 0 53 2 42 5 -39 8 -140 54 -189 87 -48 31 -101 80
-145 135 l-20 25 -1 -29z m91 -83 c13 -16 12 -17 -2 -5 -14 10 -20 10 -32 -3
-9 -8 -21 -15 -28 -15 -7 0 -2 9 11 20 28 24 34 25 51 3z m-81 -27 c0 -8 -4
-18 -10 -21 -5 -3 -10 3 -10 14 0 12 5 21 10 21 6 0 10 -6 10 -14z"/>
<path d="M1141 1523 c-1 -24 4 -43 9 -43 12 0 12 37 0 65 -7 15 -9 10 -9 -22z"/>
<path d="M420 1500 c5 -10 6 -21 2 -25 -4 -4 3 -1 16 6 28 18 28 26 -3 31 -20
4 -23 2 -15 -12z"/>
<path d="M1600 1500 c0 -13 -7 -20 -20 -20 -11 0 -20 -4 -20 -10 0 -5 4 -10 9
-10 5 0 11 -13 15 -30 6 -34 35 -41 43 -10 3 12 20 24 44 31 l38 12 -39 28
c-47 34 -70 37 -70 9z"/>
<path d="M1710 1516 c0 -8 51 -13 56 -5 3 5 -9 9 -25 9 -17 0 -31 -2 -31 -4z"/>
<path d="M1121 1463 c0 -38 -18 -173 -20 -148 -1 15 -4 16 -13 7 -10 -10 -10
-14 0 -21 14 -9 6 -41 -11 -41 -7 0 -7 -4 1 -12 7 -7 12 -21 11 -33 -1 -17 -2
-16 -9 5 l-8 25 -1 -29 c-1 -21 -5 -27 -16 -22 -11 4 -15 -2 -15 -23 0 -18 5
-28 15 -28 8 0 15 7 15 16 0 13 2 14 9 2 7 -10 11 0 16 35 4 27 18 96 31 153
16 74 20 110 13 123 -13 25 -18 23 -18 -9z"/>
<path d="M434 1454 c-3 -13 -10 -22 -14 -19 -5 3 -12 0 -16 -6 -5 -8 -3 -9 6
-4 10 6 12 4 7 -7 -4 -11 0 -15 11 -14 9 2 18 9 20 17 3 11 1 11 -8 -1 -8 -10
-10 -11 -8 -2 6 22 23 9 22 -16 -1 -14 3 -21 11 -18 8 3 11 -4 9 -20 -1 -13 2
-22 6 -19 5 3 8 29 7 58 -1 45 -5 55 -24 64 -20 10 -24 8 -29 -13z"/>
<path d="M1190 1433 c0 -4 -16 -86 -35 -182 -26 -129 -32 -177 -24 -182 16 -9
46 10 53 34 5 19 -16 33 -34 22 -7 -5 -9 2 -4 22 8 35 33 83 34 65 0 -7 -4
-21 -9 -31 -8 -13 -4 -24 16 -45 22 -24 27 -26 46 -13 27 18 31 47 6 47 -10 0
-18 -5 -16 -11 1 -6 -3 -13 -9 -16 -9 -3 -12 22 -11 83 0 59 -3 89 -11 92 -7
2 -12 11 -12 20 0 15 2 15 10 2 6 -10 8 -3 3 23 -4 24 -2 37 6 37 14 0 15 27
1 35 -5 3 -10 3 -10 -2z m-30 -342 c0 -6 -4 -13 -10 -16 -5 -3 -10 1 -10 9 0
9 5 16 10 16 6 0 10 -4 10 -9z"/>
<path d="M1560 1389 c0 -5 5 -7 10 -4 6 3 10 8 10 11 0 2 -4 4 -10 4 -5 0 -10
-5 -10 -11z"/>
<path d="M3311 1364 c0 -11 3 -14 6 -6 3 7 2 16 -1 19 -3 4 -6 -2 -5 -13z"/>
<path d="M3370 1370 c0 -5 7 -10 15 -10 8 0 15 5 15 10 0 6 -7 10 -15 10 -8 0
-15 -4 -15 -10z"/>
<path d="M518 1328 c-4 -21 1 -37 13 -49 9 -9 15 -20 12 -23 -4 -3 -2 -6 4 -6
6 0 14 7 17 16 3 8 2 13 -3 10 -5 -3 -14 1 -21 9 -10 12 -10 18 0 30 7 8 17
12 24 8 6 -3 1 4 -11 16 -29 27 -30 27 -35 -11z"/>
<path d="M1361 1316 c-9 -10 -9 -16 -1 -21 17 -10 37 12 24 25 -8 8 -15 6 -23
-4z"/>
<path d="M1420 1299 c0 -11 5 -17 10 -14 6 3 10 13 10 21 0 8 -4 14 -10 14 -5
0 -10 -9 -10 -21z"/>
<path d="M3460 1280 c0 -22 5 -40 10 -40 6 0 10 18 10 40 0 22 -4 40 -10 40
-5 0 -10 -18 -10 -40z"/>
<path d="M3520 1300 c0 -13 7 -20 20 -20 13 0 20 7 20 20 0 13 -7 20 -20 20
-13 0 -20 -7 -20 -20z"/>
<path d="M1024 1285 c3 -9 6 -23 6 -31 0 -8 6 -11 16 -7 21 8 14 47 -10 51
-14 3 -17 0 -12 -13z"/>
<path d="M491 1271 c-18 -12 -6 -30 20 -28 18 1 18 3 5 13 -9 6 -13 14 -9 17
9 10 1 8 -16 -2z"/>
<path d="M3620 1200 l0 -40 50 0 c49 0 50 1 50 30 0 28 -2 30 -40 30 -22 0
-40 5 -40 10 0 6 -4 10 -10 10 -5 0 -10 -18 -10 -40z"/>
<path d="M3360 1190 c0 -23 4 -30 20 -30 16 0 20 7 20 30 0 23 -4 30 -20 30
-16 0 -20 -7 -20 -30z"/>
<path d="M1388 1170 c-27 -17 -48 -35 -48 -40 0 -6 -6 -9 -12 -7 -7 1 -12 -4
-10 -11 1 -8 -2 -11 -8 -7 -11 7 -53 -19 -44 -28 3 -3 3 -14 0 -24 -5 -15 -14
-18 -44 -15 -28 2 -33 1 -22 -7 8 -6 22 -11 31 -11 9 0 20 -7 23 -16 9 -24 8
-26 -14 -19 -17 6 -20 2 -20 -29 0 -20 5 -36 10 -36 6 0 10 9 10 20 0 13 7 20
20 20 13 0 20 7 20 20 0 18 7 20 60 20 53 0 60 2 60 20 0 13 7 20 20 20 22 0
24 8 10 44 -6 16 -6 27 0 31 6 4 10 -3 10 -14 0 -14 6 -21 20 -21 13 0 20 -7
20 -20 0 -15 7 -20 29 -20 30 0 49 24 29 36 -7 5 -8 2 -3 -6 5 -9 4 -11 -4 -6
-6 4 -9 11 -6 16 3 5 -11 32 -31 60 -27 38 -39 48 -45 38 -8 -12 -13 -4 -10
15 1 10 1 10 -51 -23z m24 -2 c-7 -7 -12 -20 -12 -30 0 -13 -8 -18 -27 -18
l-28 1 35 29 c34 30 55 41 32 18z m48 -23 c0 -8 -4 -15 -10 -15 -5 0 -10 7
-10 15 0 8 5 15 10 15 6 0 10 -7 10 -15z m-90 -50 c0 -8 -7 -15 -15 -15 -8 0
-15 7 -15 15 0 8 7 15 15 15 8 0 15 -7 15 -15z"/>
<path d="M3997 1180 c-4 -17 -2 -27 8 -33 20 -11 19 -37 0 -37 -11 0 -15 -11
-15 -41 0 -25 4 -38 10 -34 6 4 7 11 4 17 -5 7 -1 9 9 5 14 -5 17 1 17 41 0
27 -4 52 -9 58 -5 5 -11 18 -13 29 -3 18 -5 17 -11 -5z"/>
<path d="M1046 1121 c-5 -8 -4 -16 4 -21 7 -4 10 -15 7 -25 -4 -9 -12 -13 -19
-9 -8 5 -9 2 -4 -12 14 -34 12 -46 -14 -62 -24 -16 -24 -16 -11 1 21 26 -4 21
-35 -8 -15 -14 -33 -25 -41 -25 -8 0 -11 -4 -8 -10 9 -15 -41 -60 -67 -60 -16
0 -19 -3 -11 -11 8 -8 22 -3 52 16 22 15 39 31 36 35 -3 4 2 11 11 14 9 3 12
2 8 -5 -3 -6 17 4 44 23 51 33 64 54 76 128 4 22 3 30 -3 21 -7 -11 -10 -10
-13 5 -3 15 -5 16 -12 5z"/>
<path d="M662 1113 c-20 -4 -21 -6 -6 -20 8 -9 13 -22 10 -30 -3 -8 -1 -11 4
-8 6 3 10 17 10 30 0 18 4 22 20 18 11 -3 20 0 20 6 0 11 -15 12 -58 4z"/>
<path d="M706 1081 c-4 -7 -5 -15 -2 -18 9 -9 19 4 14 18 -4 11 -6 11 -12 0z"/>
<path d="M4045 1071 c-3 -5 -2 -12 3 -15 5 -3 9 1 9 9 0 17 -3 19 -12 6z"/>
<path d="M3116 1037 c-9 -33 -7 -37 9 -31 16 7 20 39 6 48 -5 3 -11 -4 -15
-17z"/>
<path d="M675 1040 c-4 -6 -12 -7 -18 -4 -7 4 -4 -2 6 -12 10 -10 23 -19 30
-20 6 0 22 -2 34 -2 15 -2 21 -7 17 -17 -4 -8 -9 -13 -13 -11 -4 3 -8 -5 -8
-17 -2 -19 -1 -20 8 -5 7 13 18 15 44 11 20 -3 35 -1 35 4 0 11 -45 51 -80 71
-21 13 -22 12 -18 -5 5 -18 -6 -22 -41 -14 -2 1 2 8 9 16 7 8 10 15 7 15 -3 0
-9 -5 -12 -10z"/>
<path d="M1556 1024 c-8 -22 -8 -24 7 -24 7 0 23 -13 35 -29 19 -26 19 -31 6
-42 -8 -7 -13 -18 -10 -24 2 -7 0 -17 -5 -22 -6 -6 -6 -19 0 -36 12 -31 31
-36 31 -8 0 10 6 24 14 31 8 6 12 19 9 28 -4 13 -2 12 10 -3 10 -12 12 -24 6
-29 -17 -19 -9 -36 17 -36 18 0 25 -4 21 -14 -6 -15 20 -49 41 -53 6 -2 12 -1
12 2 0 13 -53 84 -60 80 -3 -2 -7 2 -7 9 0 11 -61 109 -104 163 -14 19 -18 21
-23 7z"/>
<path d="M3960 1031 c0 -5 5 -13 10 -16 6 -3 10 -2 10 4 0 5 -4 13 -10 16 -5
3 -10 2 -10 -4z"/>
<path d="M1166 1008 c7 -10 34 -10 34 0 0 4 -9 8 -19 8 -11 0 -17 -4 -15 -8z"/>
<path d="M1108 978 c-13 -13 -26 -22 -30 -20 -5 1 -8 -5 -8 -14 0 -11 -5 -14
-16 -10 -14 5 -15 4 -4 -9 16 -19 50 -20 50 0 0 8 4 15 10 15 5 0 12 11 16 24
3 14 13 27 22 29 15 4 15 5 0 6 -10 0 -28 -9 -40 -21z"/>
<path d="M744 938 c-3 -5 -3 -12 0 -15 3 -4 6 -1 6 7 0 10 3 10 14 1 10 -8 16
-9 21 -1 3 5 5 10 3 11 -26 6 -39 5 -44 -3z"/>
<path d="M3888 928 c-10 -12 -18 -27 -18 -33 1 -14 30 -51 30 -38 0 7 -4 15
-10 18 -15 9 -12 18 15 48 15 15 20 27 13 27 -7 0 -21 -10 -30 -22z"/>
<path d="M802 919 c6 -19 68 -22 68 -4 0 11 -11 15 -36 15 -22 0 -34 -4 -32
-11z"/>
<path d="M3827 924 c-14 -14 -7 -25 13 -22 12 2 21 8 21 13 0 12 -24 18 -34 9z"/>
<path d="M1010 901 c0 -5 -3 -16 -6 -25 -8 -21 29 -22 46 -1 15 18 13 20 -17
29 -13 4 -23 3 -23 -3z"/>
<path d="M1120 870 c0 -23 4 -30 20 -30 16 0 20 7 20 30 0 23 -4 30 -20 30
-16 0 -20 -7 -20 -30z"/>
<path d="M812 856 c7 -8 15 -12 17 -11 5 6 -10 25 -20 25 -5 0 -4 -6 3 -14z"/>
<path d="M1674 764 c3 -9 6 -18 6 -20 0 -2 5 -4 10 -4 6 0 10 9 10 20 0 12 -7
20 -16 20 -11 0 -14 -5 -10 -16z"/>
<path d="M997 754 c-11 -11 5 -34 24 -34 12 0 19 7 19 20 0 19 -28 28 -43 14z"/>
<path d="M1180 675 c0 -8 7 -15 15 -15 8 0 15 7 15 15 0 8 -7 15 -15 15 -8 0
-15 -7 -15 -15z"/>
<path d="M1104 669 c-3 -5 0 -17 8 -26 7 -9 8 -14 3 -11 -6 4 -17 2 -25 -3
-11 -7 -9 -8 8 -6 13 2 28 10 32 18 5 8 14 14 20 14 5 0 11 4 13 10 3 13 -51
17 -59 4z"/>
<path d="M1270 610 c-8 -5 -10 -10 -5 -10 6 0 2 -7 -9 -15 -10 -7 -15 -18 -11
-24 9 -15 -8 -14 -23 1 -9 9 -9 5 0 -15 7 -14 15 -22 16 -17 2 6 9 7 14 4 6
-4 8 -2 4 4 -10 17 10 23 24 7 10 -12 10 -15 0 -15 -8 0 -11 -3 -8 -6 4 -3 16
0 28 6 17 9 21 9 15 0 -5 -8 3 -9 29 -5 30 6 36 4 36 -9 0 -10 -4 -15 -9 -12
-12 8 -8 -27 4 -36 6 -4 15 -8 20 -8 7 0 7 3 0 8 -12 9 -18 32 -7 32 4 0 8 23
10 50 l3 50 -40 0 c-23 0 -41 5 -41 10 0 13 -30 13 -50 0z"/>
<path d="M1760 590 c0 -5 5 -10 11 -10 5 0 7 5 4 10 -3 6 -8 10 -11 10 -2 0
-4 -4 -4 -10z"/>
<path d="M1414 475 c11 -8 28 -15 38 -15 10 0 18 -4 18 -8 0 -11 51 -35 58
-27 3 3 1 5 -5 5 -6 0 -8 12 -5 26 5 26 4 27 -41 20 -28 -4 -48 -3 -52 4 -3 5
-12 10 -18 10 -7 0 -3 -7 7 -15z"/>
<path d="M1673 446 c-10 -11 -7 -15 14 -21 32 -8 40 0 20 20 -19 18 -19 18
-34 1z"/>
<path d="M1565 442 c-11 -4 -21 -13 -23 -20 -2 -9 2 -11 10 -5 7 4 21 6 31 5
10 -2 17 3 17 12 0 17 -4 18 -35 8z"/>
<path d="M2600 287 c-142 -9 -401 -10 -495 -1 -38 3 -66 3 -62 -2 4 -4 40 -10
80 -12 40 -2 82 -10 94 -17 12 -8 23 -10 25 -5 2 5 70 10 155 11 105 0 153 4
157 12 3 8 5 8 5 -1 1 -7 6 -10 13 -6 8 5 9 2 5 -10 -4 -10 -3 -15 3 -11 6 3
10 12 10 18 0 8 22 13 62 14 55 3 79 8 67 16 -2 1 -56 -1 -119 -6z"/>
<path d="M2730 289 c0 -5 5 -7 10 -4 6 3 10 8 10 11 0 2 -4 4 -10 4 -5 0 -10
-5 -10 -11z"/>
<path d="M2116 249 c6 -11 49 -16 70 -9 13 5 5 8 -28 11 -25 2 -44 1 -42 -2z"/>
<path d="M2493 243 c9 -2 23 -2 30 0 6 3 -1 5 -18 5 -16 0 -22 -2 -12 -5z"/>
<path d="M2815 2370 c-3 -5 -1 -10 4 -10 6 0 11 5 11 10 0 6 -2 10 -4 10 -3 0
-8 -4 -11 -10z"/>
<path d="M2895 1690 c-3 -5 -1 -10 4 -10 6 0 11 5 11 10 0 6 -2 10 -4 10 -3 0
-8 -4 -11 -10z"/>
</g>
</svg>
